<svg width="30" height="26" viewBox="0 0 30 26" fill="none" xmlns="http://www.w3.org/2000/svg">
<g clip-path="url(#clip0_4_902)">
<path d="M15.1098 18.7687C12.1651 18.7687 9.75577 16.9812 9.0419 14.5437L3.06322 19.9875C5.56177 23.5625 10.0235 26 15.1098 26C17.8761 26 20.4639 25.2687 22.6947 23.9687L16.716 18.525C16.1806 18.6875 15.6452 18.7687 15.1098 18.7687Z" fill="#34A853"/>
<path d="M29.3873 11.2125C29.298 10.8063 28.9411 10.5625 28.4949 10.5625H15.1098C14.5744 10.5625 14.2175 10.8875 14.2175 11.375V15.4375C14.2175 15.925 14.5744 16.25 15.1098 16.25H19.8392C19.0361 17.3875 17.8761 18.1187 16.716 18.525L22.6947 23.9688C26.7103 21.6938 29.3873 17.6312 29.3873 13C29.3873 12.7562 29.3873 12.5938 29.3873 12.4313C29.4765 12.1063 29.4765 11.7 29.3873 11.2125Z" fill="#4285F4"/>
<path d="M8.7742 13C8.7742 12.5125 8.86344 12.025 8.95267 11.5375L3.06322 6.09375C1.63547 8.125 0.832367 10.4813 0.832367 13C0.832367 15.5187 1.63547 17.875 3.06322 19.9062L9.0419 14.4625C8.86344 13.975 8.7742 13.4875 8.7742 13Z" fill="#FBBC05"/>
<path d="M26.2641 4.875C25.2825 3.7375 24.0332 2.7625 22.6947 1.95C20.4639 0.73125 17.8761 0 15.1098 0C10.0235 0 5.56177 2.4375 3.06322 6.09375L9.0419 11.5375C9.75577 9.1 12.2543 7.3125 15.1098 7.3125C15.6452 7.3125 16.1806 7.39375 16.716 7.55625C17.5191 7.8 18.233 8.20625 19.0361 8.775C19.3038 9.01875 19.6608 9.01875 20.0177 8.85625L25.9964 6.175C26.2641 6.09375 26.4426 5.85 26.4426 5.60625C26.5318 5.3625 26.4426 5.11875 26.2641 4.875Z" fill="#EA4335"/>
</g>
<defs>
<clipPath id="clip0_4_902">
<rect width="28.5549" height="26" fill="white" transform="translate(0.832367)"/>
</clipPath>
</defs>
</svg>
