<svg width="23" height="23" viewBox="0 0 23 23" fill="none" xmlns="http://www.w3.org/2000/svg">
<path d="M19.3295 5.52268H16.3841L14.7273 3.68177H9.20455V5.52268H13.8989L15.6477 7.36359H19.3295V18.409H4.60227V10.125H2.76136V18.409C2.76136 19.4215 3.58977 20.25 4.60227 20.25H19.3295C20.342 20.25 21.1705 19.4215 21.1705 18.409V7.36359C21.1705 6.35109 20.342 5.52268 19.3295 5.52268ZM7.36364 12.8863C7.36364 16.9823 12.3249 19.0442 15.2243 16.1447C18.1238 13.2453 16.0619 8.28405 11.9659 8.28405C9.42545 8.28405 7.36364 10.3459 7.36364 12.8863ZM11.9659 10.125C13.4755 10.171 14.6812 11.3768 14.7273 12.8863C14.6812 14.3959 13.4755 15.6017 11.9659 15.6477C10.4564 15.6017 9.25057 14.3959 9.20455 12.8863C9.25057 11.3768 10.4564 10.171 11.9659 10.125ZM4.60227 5.52268H7.36364V3.68177H4.60227V0.92041H2.76136V3.68177H0V5.52268H2.76136V8.28405H4.60227" fill="#FCFCFE"/>
</svg>
