<svg width="31" height="30" viewBox="0 0 31 30" fill="none" xmlns="http://www.w3.org/2000/svg">
<path fill-rule="evenodd" clip-rule="evenodd" d="M6.60627 12.3033C6.26251 13.0283 6.26251 13.8531 6.26251 15.5028V20.6549C6.26251 22.9459 6.26251 24.0914 6.99621 24.8031C7.69014 25.4763 8.78408 25.5128 10.8988 25.5148V19.44C10.8988 18.1882 11.9361 17.225 13.1513 17.225H16.9088C18.1239 17.225 19.1613 18.1882 19.1613 19.44V25.5148C21.2759 25.5128 22.3699 25.4763 23.0638 24.8031C23.7975 24.0914 23.7975 22.9459 23.7975 20.6549V15.5028C23.7975 13.8531 23.7975 13.0283 23.4537 12.3033C23.11 11.5782 22.4644 11.0414 21.1732 9.96782L19.9207 8.92639C17.5869 6.98588 16.42 6.01562 15.03 6.01562C13.64 6.01562 12.4731 6.98588 10.1393 8.92639L8.88682 9.96782C7.59563 11.0414 6.95004 11.5782 6.60627 12.3033ZM17.1613 25.5149V19.44C17.1613 19.3496 17.0771 19.225 16.9088 19.225H13.1513C12.9829 19.225 12.8988 19.3496 12.8988 19.44V25.5149H17.1613Z" fill="#FFCB74"/>
</svg>
