<svg width="304" height="371" viewBox="0 0 304 371" fill="none" xmlns="http://www.w3.org/2000/svg">
<g clip-path="url(#clip0_9_8083)">
<path d="M187.711 284.521C185.75 290.948 188.421 316.009 187.711 323.741C187.621 324.704 187.556 325.831 187.502 327.068C187.502 327.235 187.502 327.405 187.482 327.576C187.141 336.302 187.408 349.895 185.569 351.591C184.178 352.877 178.261 353.487 173.805 353.586C173.177 353.586 172.573 353.609 172.024 353.609C170.949 353.644 169.874 353.576 168.815 353.404C167.034 352.911 174.342 347.471 174.876 345.661C175.093 344.902 173.96 338.98 172.454 331.268L172.282 330.387C170.132 319.427 167.317 305.254 166.496 297.215C165.601 288.421 161.572 273.079 158.88 262.134C158.445 260.374 158.059 258.72 157.71 257.236C156.795 253.238 156.274 250.408 156.516 249.588C157.07 247.737 160.406 241.621 164.723 236.754C167.337 233.833 170.312 231.375 173.255 230.589C175.532 229.982 178.417 229.193 181.372 228.385L181.568 228.332C188.729 226.363 196.198 224.273 196.198 224.273C196.132 225.031 189.657 278.14 187.711 284.521Z" fill="#FFCB74"/>
<path d="M159.726 238.708C159.726 238.708 169.574 303.308 171.252 312.371C172.931 321.434 174.162 333.301 174.162 333.301" stroke="#1B232A" stroke-miterlimit="10"/>
<path d="M140.115 291.285C139.581 296.065 141.9 316.005 143.861 329.849C143.89 330.05 143.919 330.251 143.943 330.448C143.997 330.827 144.042 331.184 144.091 331.552C145.733 344.621 144.912 355.259 144.395 356.048C143.984 356.701 136.52 357.972 131.399 358.469H131.304L130.947 358.503H130.886C129.753 358.605 128.76 358.666 128.013 358.666C123.91 358.666 121.952 357.843 123.376 356.196C124.8 354.55 129.244 352.569 128.896 350.426C128.768 349.667 127.147 343.218 125.046 334.803C124.956 334.45 124.87 334.09 124.776 333.73C120.988 318.555 115.83 297.716 114.89 291.596C113.396 281.873 112.682 244.463 123.2 229.136L158.901 234.512L169.669 236.132V236.166C168.803 237.653 140.644 286.57 140.115 291.285Z" fill="#FFCB74"/>
<path d="M133.939 133.018C133.95 139.928 131.88 146.703 127.96 152.586H127.923C126.753 152.586 125.592 152.541 124.447 152.442C118.644 151.964 113.029 150.299 108.007 147.568C102.985 144.837 98.6829 141.108 95.4111 136.652C92.1394 132.195 89.98 127.122 89.0892 121.799C88.1984 116.476 88.5985 111.036 90.2605 105.874C90.4451 105.29 90.6708 104.713 90.8678 104.144C91.9763 101.246 93.4808 98.4911 95.3448 95.9458L95.5541 95.665C105.912 96.1562 115.669 100.306 122.813 107.257C129.956 114.208 133.939 123.43 133.939 133.018Z" fill="#FFCB74" fill-opacity="0.2"/>
<path d="M132.986 233.104C132.986 233.104 105.579 268.386 130.155 340.551" stroke="#1B232A" stroke-miterlimit="10"/>
<path d="M167.215 116.265C167.215 117.524 167.145 118.765 167.014 119.99C166.915 120.871 166.778 121.741 166.603 122.6C164.987 130.995 160.228 138.598 153.161 144.077C146.093 149.556 137.167 152.562 127.944 152.571C131.611 147.042 133.661 140.727 133.891 134.245C134.121 127.762 132.524 121.336 129.256 115.597C125.989 109.858 121.163 105.003 115.253 101.508C109.343 98.0137 102.552 96.0001 95.5459 95.6649C96.2189 94.7582 96.9411 93.8819 97.7003 93.0397C101.916 88.354 107.339 84.724 113.47 82.4841C119.601 80.2442 126.243 79.4663 132.784 80.222C139.326 80.9777 145.557 83.2428 150.903 86.8086C156.249 90.3745 160.539 95.1265 163.378 100.627C163.661 101.173 163.928 101.731 164.178 102.293C166.183 106.718 167.215 111.467 167.215 116.265Z" fill="url(#paint0_linear_9_8083)"/>
<path d="M107.053 124.012C107.053 124.012 105.821 136.865 107.34 137.977C108.858 139.088 109.822 137.104 109.584 133.895L107.053 124.012Z" fill="#D27358"/>
<path d="M196.748 222.998C196.613 223.435 196.438 223.86 196.223 224.269C195.053 226.496 191.577 230.718 180.76 233.833C175.972 235.157 171.065 236.084 166.098 236.602C165.643 236.655 165.191 236.705 164.74 236.747C147.915 238.476 134.784 236.132 127.299 233.791C123.122 232.486 120.705 231.177 120.376 230.582C119.461 228.924 121.164 223.248 121.238 222.994C121.238 223.089 121.562 224.36 137.837 226.689H137.882C138.961 226.845 140.106 227 141.325 227.167L141.641 227.205C142.101 227.266 142.568 227.315 143.045 227.353H143.094C154.809 228.359 170.448 224.406 181.811 220.786C185.159 219.72 188.135 218.685 190.527 217.812C192.205 217.205 193.596 216.674 194.63 216.272C195.894 215.779 196.629 215.475 196.682 215.448C196.682 215.448 197.224 217.672 196.723 219.527C196.223 221.382 197.249 221.405 196.748 222.998Z" fill="url(#paint1_linear_9_8083)"/>
<path d="M196.444 217.391C195.702 219.071 191.52 221.943 181.635 224.978C176.259 226.593 170.788 227.925 165.249 228.969C157.143 230.571 148.812 230.971 140.57 230.153C131.362 229.208 125.022 226.902 123.184 225.673C121.444 224.508 121.132 223.59 121.238 222.994C121.283 222.696 121.435 222.421 121.669 222.213H121.706C122.084 222.33 125.65 223.298 146.713 224.834C158.942 225.726 172.242 222.179 181.848 218.734C186.495 217.099 191.027 215.199 195.419 213.043C195.778 213.399 196.074 213.805 196.297 214.246C196.5 214.626 196.639 215.033 196.707 215.452C196.817 216.108 196.726 216.78 196.444 217.391Z" fill="#FFCB74"/>
<path d="M127.816 135.135C125.584 135.996 113.38 142.385 113.38 142.385C107.224 130.848 106.642 121.975 106.654 118.951C106.654 118.219 106.695 117.813 106.695 117.813L108.566 116.675L114.18 113.26C114.18 113.26 127.549 120.567 130.401 125.082C133.253 129.596 130.065 134.27 127.816 135.135Z" fill="#F8AD88"/>
<path d="M121.144 128.507C121.144 128.507 123.536 125.271 126.154 125.677C128.772 126.083 129.08 129.031 128.596 131.929C128.112 134.828 123.384 135.696 118.772 138.041C114.16 140.386 112.588 143.227 112.588 143.227C112.588 143.227 129.823 137.419 130.155 134.881C130.488 132.343 132.236 125.533 129.417 124.368C126.597 123.204 123.2 122.711 121.887 124.406C120.573 126.102 121.144 128.507 121.144 128.507Z" fill="#D27358"/>
<path d="M121.669 127.016C120.307 128.018 120.241 132.589 120.241 132.589C119.696 131.251 119.311 129.862 119.092 128.447C118.743 126.14 116.765 121.618 113.901 121.026C111.825 120.601 108.39 119.509 106.654 118.94C106.654 118.207 106.695 117.801 106.695 117.801L108.567 116.663C112.12 116.003 117.566 116.231 117.566 116.231C117.566 116.231 123.032 126.03 121.669 127.016Z" fill="#D27358"/>
<path d="M190.531 217.838C187.72 219.261 184.8 220.491 181.794 221.518C178.922 222.543 175.442 223.658 171.244 224.864C166.28 226.29 161.158 227.191 155.975 227.55C151.685 227.846 147.376 227.789 143.098 227.38H143.048C142.575 227.334 142.107 227.285 141.645 227.232L141.37 227.198H141.329C140.139 227.056 138.991 226.897 137.886 226.72H137.841C128.378 225.202 122.223 222.49 121.71 222.258H121.673L119.843 190.121C119.843 190.121 120.101 156.422 123.819 143.899C124.484 141.664 125.255 140.105 126.158 139.532C132.117 135.738 182.377 139.532 187.712 148.595C191.446 154.923 193.723 183.85 194.757 200.736C194.918 203.343 195.045 205.668 195.168 207.565C195.291 209.906 195.373 211.624 195.41 212.497C195.41 212.876 195.439 213.104 195.439 213.104C195.488 213.172 196.337 214.792 190.531 217.838Z" fill="#FFCB74"/>
<path d="M131.164 132.127C131.164 132.506 131.164 132.885 131.144 133.246L131.119 133.86L127.816 135.135C129.687 133.568 131.099 125.328 126.659 124.835C126.337 124.801 126.012 124.801 125.69 124.835C121.94 125.214 120.421 130.196 120.421 130.196L117.656 119.486C117.656 119.486 114.373 120.226 106.695 117.836C99.0171 115.446 95.7302 108.108 96.0051 103.161C96.2801 98.2144 100.999 97.8085 102.16 99.1249C103.322 100.441 105.726 103.161 105.726 103.161C105.491 102.126 105.45 101.061 105.607 100.013C105.685 99.3108 105.8 98.6621 105.899 98.1841C114.491 101.224 121.661 106.948 126.166 114.364C126.607 115.083 127.017 115.817 127.397 116.569C129.718 121.09 130.996 126.009 131.152 131.011C131.16 131.383 131.164 131.755 131.164 132.127Z" fill="url(#paint2_linear_9_8083)"/>
<path d="M132.757 121.037C133.767 124.268 134.319 127.607 134.398 130.969C134.398 131.258 134.398 131.546 134.398 131.838C134.398 132.13 134.398 132.347 134.398 132.597" stroke="#231F20" stroke-miterlimit="10"/>
<path d="M134.394 131.838C134.394 132.707 131.144 133.246 131.144 133.246C131.797 128.064 128.551 119.076 128.551 119.076C121.267 102.854 105.887 98.1841 105.887 98.1841C102.505 96.989 98.9598 96.2356 95.353 95.9458C96.0879 94.9413 96.8768 93.9714 97.7167 93.0398C104.525 93.8896 111.007 96.2576 116.605 99.9396C122.202 103.622 126.747 108.507 129.848 114.175C130.236 114.88 130.6 115.599 130.939 116.33C131.657 117.86 132.264 119.433 132.757 121.038C133.861 124.224 134.382 130.97 134.394 131.838Z" fill="#FFCB74"/>
<path d="M134.382 132.601C134.382 132.806 134.382 133.011 134.382 133.212C134.136 140.08 131.925 146.765 127.976 152.586H127.939C126.77 152.586 125.608 152.541 124.463 152.442C128.497 146.932 130.806 140.499 131.136 133.853L134.382 132.601Z" stroke="#231F20" stroke-miterlimit="10"/>
<path opacity="0.4" d="M126.154 114.364C124.283 112.168 120.771 107.3 118.419 105.544C117.32 103.317 116.433 99.4928 114.874 98.184C110.75 94.7279 110.36 91.1997 110.36 91.1997L120.853 94.6141L126.154 114.364Z" fill="#FFCB74"/>
<path d="M164.194 102.285C155.071 110.196 143.396 115.126 130.955 116.322C129.782 116.436 128.598 116.515 127.406 116.561C127.155 116.075 126.897 115.594 126.622 115.123C126.478 114.865 126.326 114.611 126.17 114.364C127.401 114.338 128.633 114.277 129.864 114.175C142.35 113.174 154.135 108.412 163.41 100.62C163.501 100.79 163.587 100.965 163.669 101.139C163.841 101.515 164.022 101.902 164.194 102.285Z" fill="#FDFDFD"/>
<path d="M166.997 119.99C166.899 120.871 166.762 121.741 166.587 122.601C157.262 129.105 146.005 132.812 134.333 133.223C133.578 133.25 132.818 133.265 132.055 133.265H131.111C131.111 132.885 131.132 132.506 131.132 132.146C131.132 131.785 131.132 131.387 131.111 131.03C131.382 131.03 131.653 131.03 131.932 131.03C132.753 131.03 133.561 131.014 134.357 130.981C146.207 130.538 157.615 126.697 166.997 119.99Z" fill="#FDFDFD"/>
<path d="M121.669 131.838C121.669 131.838 122.826 128.458 124.874 127.388C126.922 126.318 128.083 127.802 127.906 129.82C127.906 129.82 127.373 127.965 125.814 128.541C124.254 129.118 121.669 131.838 121.669 131.838Z" fill="#D27358"/>
<path d="M109.486 120.07C109.404 120.205 109.358 120.355 109.352 120.509C109.345 120.663 109.377 120.817 109.446 120.957C109.515 121.097 109.619 121.221 109.749 121.317C109.88 121.414 110.033 121.48 110.196 121.512C111.447 121.754 112.635 122.22 113.692 122.885C115.613 124.171 115.871 124.247 115.617 122.965C115.362 121.683 113.725 120.267 112.133 119.774C110.992 119.429 109.958 119.334 109.486 120.07Z" fill="url(#paint3_linear_9_8083)"/>
<path d="M110.788 124.176C111.051 123.33 110.92 122.553 110.495 122.44C110.071 122.327 109.513 122.922 109.25 123.767C108.987 124.613 109.118 125.39 109.543 125.503C109.968 125.616 110.525 125.022 110.788 124.176Z" fill="#01010B"/>
<path d="M117.947 137.37C117.687 137.738 117.313 138.024 116.874 138.191C116.434 138.359 115.95 138.399 115.485 138.307C114.328 138.143 112.945 137.385 111.599 135.822C111.599 135.822 115.058 133.659 115.871 131.929C116.264 132.447 116.628 132.982 116.962 133.534C117.754 134.805 118.534 136.501 117.947 137.37Z" fill="#7A2B18"/>
<path d="M117.947 137.37C117.687 137.737 117.313 138.024 116.873 138.191C116.434 138.359 115.95 138.399 115.485 138.307C115.258 137.461 115.275 136.575 115.534 135.738C115.793 134.9 116.286 134.14 116.962 133.534C117.754 134.805 118.534 136.501 117.947 137.37Z" fill="#EE7671"/>
<path opacity="0.65" d="M155.975 227.551C136.249 228.928 121.669 222.239 121.669 222.239L119.839 190.103C119.839 190.103 120.097 156.403 123.815 143.88C127.328 148.504 137.451 163.091 135.482 175.296C133.126 189.882 136.75 219.963 155.975 227.551Z" fill="#FFCB74"/>
<path d="M120.627 203.802C120.627 203.802 129.408 191.616 131.981 174.006L129.93 163.429L120.335 198.563L120.627 203.802Z" fill="#FFCB74"/>
<path d="M140.115 135.135C113.138 147.408 96.9045 168.099 90.3346 177.758C88.6604 180.22 87.6181 181.965 87.1831 182.667C85.0452 186.127 82.5502 185.303 82.0126 182.667C81.475 180.03 83.4407 176.896 95.9935 158.44C103.343 147.632 114.87 140.757 123.192 136.918C126.456 135.378 129.841 134.069 133.319 133.003C137.924 130.15 140.115 135.135 140.115 135.135Z" fill="url(#paint4_linear_9_8083)"/>
<path opacity="0.65" d="M195.39 212.451C189.751 215.945 169.287 223.074 158.531 223.218C146.479 223.377 134.948 217.118 134.841 213.514C134.735 209.91 128.218 172.583 128.218 172.583C130.836 134.042 184.626 189.829 194.758 200.706C195.111 206.518 195.312 210.904 195.39 212.451Z" fill="#FFCB74"/>
<path opacity="0.29" d="M140.114 135.135C113.138 147.408 96.9038 168.099 90.334 177.758C94.5401 170.751 107.159 150.287 114.02 145.204C122.325 139.039 123.183 136.929 123.183 136.929C126.447 135.389 129.832 134.08 133.311 133.014C137.923 130.15 140.114 135.135 140.114 135.135Z" fill="#FFCB74"/>
<path d="M88.8239 187.91L87.7077 188.475L80.5347 192.003C77.5924 187.553 78.7989 186.935 79.0656 182.735C79.2298 180.129 80.7932 178.941 81.9381 178.433C82.3392 178.248 82.768 178.12 83.2102 178.054C83.1815 178.114 82.7999 178.968 83.3251 180.759C83.8627 182.621 84.7983 182.367 87.1579 182.697C89.5174 183.027 88.8239 187.91 88.8239 187.91Z" fill="#FDFDFD"/>
<path opacity="0.65" d="M87.7077 188.475L80.5347 192.003C77.5924 187.553 78.7989 186.935 79.0656 182.735C79.2298 180.129 80.7932 178.941 81.9381 178.433C82.0243 179.765 82.369 182.701 83.7437 183.198C85.5328 183.847 88.0032 182.61 88.2576 185.391C88.3843 186.446 88.1941 187.513 87.7077 188.475Z" fill="#FFCB74"/>
<path d="M98.1844 209.91C98.1844 209.91 97.6797 214.777 93.2601 213.172C93.1165 213.123 92.9688 213.062 92.8169 212.998C88.0034 210.9 82.6565 200.391 80.7853 194.583C80.0836 192.413 80.416 190.789 81.2367 189.651C82.6032 187.72 85.3402 187.041 86.9365 187.041C89.4766 187.041 94.2901 192.732 94.2901 192.732L98.1844 209.91Z" fill="#FFCB74"/>
<path d="M151.621 217.417C146.069 219.049 124.813 219.622 112.88 218.366C110.122 218.074 107.865 217.687 106.412 217.194C106.11 217.086 105.817 216.959 105.534 216.814C103.893 215.98 103.733 215.141 104.373 214.352C105.14 213.404 107.093 212.523 109.141 211.818C111.146 211.146 113.192 210.582 115.268 210.13C115.268 210.13 116.597 210.319 118.83 210.509C123.457 210.913 128.111 211.007 132.753 210.79C136.463 210.625 140.152 210.18 143.783 209.462L151.621 217.417Z" fill="url(#paint5_linear_9_8083)"/>
<path d="M114.627 211.268C108.472 221.511 95.2421 216.579 92.8333 212.998C91.9675 211.712 91.9182 208.73 92.2014 205.441C92.649 201.17 93.3518 196.926 94.3065 192.728C94.3065 192.728 95.911 189.64 100.462 168.38C105.013 147.119 122.654 142.385 122.654 142.385C123.585 142.552 124.464 142.905 125.231 143.421C128.715 145.75 129.704 151.387 130.155 159.233C130.668 168.748 120.775 200.994 114.627 211.268Z" fill="#FFCB74"/>
<path opacity="0.65" d="M94.6637 207.891L93.2767 213.172C93.1331 213.123 92.9854 213.062 92.8335 212.998C88.02 210.9 82.6731 200.391 80.8019 194.583C80.1002 192.413 80.4325 190.789 81.2533 189.651C82.5541 194.784 90.0267 204.344 90.0267 204.344L94.6637 207.891Z" fill="#FFCB74"/>
<path opacity="0.65" d="M114.627 211.268C108.472 221.511 95.2421 216.579 92.8333 212.998C91.9675 211.712 91.9182 208.73 92.2014 205.441C98.7671 208.286 106.925 207.641 112.588 191.988C118.899 174.537 123.815 143.868 123.815 143.868C124.226 143.593 124.716 143.437 125.223 143.421C128.707 145.75 129.696 151.387 130.147 159.233C130.668 168.748 120.775 200.994 114.627 211.268Z" fill="#FFCB74"/>
<path opacity="0.29" d="M151.621 217.417C144.489 219.515 111.443 219.861 105.534 216.829C103.893 215.995 103.733 215.156 104.373 214.367C108.224 214.745 112.097 214.911 115.969 214.864C126.59 214.754 132.568 210.926 132.753 210.809L143.012 208.688L143.796 209.485L151.621 217.417Z" fill="#FFCB74"/>
<path opacity="0.65" d="M118.83 210.528C118.769 210.838 118.674 211.142 118.546 211.435C117.746 213.248 116.051 213.332 115.222 215.471C114.837 216.473 113.835 217.527 112.879 218.366C110.122 218.074 107.865 217.687 106.412 217.194L109.137 211.833C111.142 211.161 113.188 210.597 115.264 210.145C115.264 210.145 116.597 210.334 118.83 210.528Z" fill="#FFCB74"/>
<path d="M105.534 217.861C102.325 217.406 98.1843 216.416 98.1843 216.416C98.1843 216.416 93.2395 216.128 91.0441 210.099C90.4016 208.239 90.0587 206.301 90.0264 204.348C89.6161 192.728 94.3064 192.728 94.3064 192.728C94.3064 192.728 92.743 199.177 93.2354 204.302C93.3186 205.368 93.5432 206.421 93.9043 207.436C95.833 212.531 105.534 217.861 105.534 217.861Z" fill="#FDFDFD"/>
<path opacity="0.29" d="M105.534 217.861C102.325 217.406 98.1847 216.416 98.1847 216.416C98.1847 216.416 93.2399 216.128 91.0445 210.099C91.0445 210.099 89.8134 202.986 91.8652 200.27C92.2194 201.64 92.6718 202.987 93.2194 204.302C93.3025 205.368 93.5272 206.421 93.8883 207.436C95.8334 212.531 105.534 217.861 105.534 217.861Z" fill="#FFCB74"/>
<path opacity="0.65" d="M106.572 161.088L108.095 160.409C112.778 162.744 117.898 164.233 123.184 164.798L121.378 172.583H119.839L106.572 161.088Z" fill="#FFCB74"/>
<path d="M109.621 174.685L111.025 174.006L117.701 175.796L112.686 188.403H111.102L109.621 174.685Z" fill="#28383B"/>
<path d="M112.334 214.652C112.334 214.69 112.313 215.995 109.621 217.398C109.275 217.564 108.902 217.68 108.517 217.74C104.59 218.446 94.9756 216.351 92.7023 206.704C90.1621 195.949 94.3067 192.735 94.3067 192.735C93.6789 194.655 94.1426 197.007 95.0823 199.367L95.189 199.629C95.3285 199.974 95.4804 200.319 95.6445 200.66C95.7676 200.93 95.8948 201.203 96.0343 201.48C96.837 203.042 97.7316 204.561 98.714 206.032C98.7152 206.043 98.7152 206.053 98.714 206.063C98.8904 206.328 99.0628 206.582 99.231 206.822C99.8579 207.67 100.625 208.423 101.504 209.052C101.87 209.325 102.255 209.599 102.657 209.864L102.699 209.887C106.753 212.539 112.334 214.652 112.334 214.652Z" fill="white"/>
<path opacity="0.65" d="M132.088 133.253C132.088 133.253 129.121 139.46 124.447 141.19C119.773 142.92 114.271 146.657 114.271 146.657C114.271 146.657 122.773 141.243 125.888 145.204C129.002 149.164 135.564 142.806 135.658 138.041C135.753 133.276 133.315 133.01 133.315 133.01L132.088 133.253Z" fill="#FFCB74"/>
<path d="M164.362 102.376C155.239 110.287 143.564 115.217 131.123 116.413C129.95 116.527 128.767 116.606 127.574 116.652C127.324 116.166 127.065 115.685 126.79 115.214C132.289 114.835 144.279 113.473 153.135 108.677C158.675 105.677 161.933 103.108 163.837 101.223C164.009 101.598 164.19 101.978 164.362 102.376Z" fill="#FFCB74"/>
<path opacity="0.56" d="M112.334 214.652C112.334 214.69 112.313 215.995 109.621 217.398C109.275 217.564 108.902 217.68 108.517 217.74C106.057 217.635 103.659 216.989 101.524 215.854C99.3893 214.718 97.5787 213.128 96.2435 211.215C91.5654 204.602 93.9086 196.195 93.9086 196.195C93.9086 196.195 94.3189 197.515 95.0822 199.367L95.1889 199.629C95.3284 199.974 95.4803 200.319 95.6444 200.66C95.7675 200.93 95.8947 201.203 96.0342 201.48C96.7859 203.065 97.6823 204.588 98.7139 206.032C98.7151 206.042 98.7151 206.053 98.7139 206.063C99.5023 207.167 100.44 208.175 101.504 209.06C101.866 209.357 102.251 209.628 102.657 209.872L102.698 209.894C106.753 212.539 112.334 214.652 112.334 214.652Z" fill="#FFCB74"/>
<path opacity="0.4" d="M139.914 102.02C139.914 102.02 137.882 106.83 142.294 111.155C146.705 115.48 149.491 116.728 150.045 121.622C150.599 126.516 158.601 130.901 163.013 129.433C167.424 127.965 148.65 133.253 148.65 133.253L133.565 105.893L139.914 102.02Z" fill="#FFCB74"/>
<path opacity="0.4" d="M167.215 116.265C167.215 117.525 167.145 118.765 167.013 119.99C166.915 120.871 166.778 121.741 166.603 122.601C165.747 127.126 163.963 131.458 161.346 135.363C153.648 136.288 144.912 133.291 149.077 129.941C154.92 125.245 157.411 107.52 150.87 101.64C145.946 97.228 146.356 88.5176 146.873 84.4393C154.07 88.1086 159.846 93.7658 163.394 100.62C163.677 101.166 163.944 101.724 164.194 102.285C166.194 106.714 167.221 111.466 167.215 116.265Z" fill="#FFCB74"/>
<path d="M197.918 144.528C196.301 146.805 188.504 149.798 180.584 151.619C174.38 153.045 168.097 153.755 164.646 152.84C164.172 152.719 163.717 152.541 163.292 152.313C160.756 150.887 158.778 146.152 157.879 140.499C156.574 132.434 157.415 122.506 161.818 117.707C169.308 109.55 165.044 104.345 157.407 100.635C149.77 96.9246 151.793 89.7886 151.252 83.1154C150.71 76.4422 148.847 77.4248 145.17 75.5734C141.494 73.7221 143.365 66.1801 136.282 57.0372C135.9 56.5478 135.527 56.0964 135.154 55.6791C134.78 55.2617 134.509 54.981 134.197 54.6699C128.165 48.71 123.754 51.9081 122.913 46.9497C121.977 41.4374 110.663 41.0504 110.663 41.0504C110.663 41.0504 105.53 41.7105 105.132 39.6126C104.972 38.778 105.427 38.391 106.273 38.3189C107.549 38.2051 109.699 38.7931 111.948 39.6126C115.69 40.9783 123.848 41.8319 130.664 42.5338C137.48 43.2356 137.886 45.0452 137.886 49.9922C137.886 54.9393 142.565 61.1155 156.25 62.1019C168.187 62.9668 170.042 67.7925 168.22 72.0301C167.948 72.6633 167.61 73.2706 167.211 73.8435C166.189 75.3192 165.52 76.7305 165.413 78.0735C165.376 78.3786 165.376 78.6865 165.413 78.9916C165.717 81.4347 168.146 83.6389 174.1 85.5737C183.994 88.787 177.309 96.5756 176.243 102.384C175.176 108.192 179.985 104.857 185.599 114.869C191.212 124.881 192.85 118.2 198.697 124.361C204.545 130.522 200.991 140.2 197.918 144.528Z" fill="white"/>
<path opacity="0.18" d="M186.953 138.701V146.626C184.958 148.425 182.83 150.093 180.584 151.619C176.596 154.331 171.511 156.903 167.818 155.898C166.956 155.663 165.877 154.574 164.646 152.84C162.685 150.075 160.342 145.678 157.879 140.499C156.574 132.434 157.416 122.506 161.819 117.707C169.308 109.55 165.044 104.345 157.407 100.635C149.771 96.9245 151.794 89.7885 151.252 83.1153C150.71 76.4421 148.847 77.4247 145.171 75.5733C141.494 73.722 143.365 66.18 136.282 57.0371C135.901 56.5477 135.527 56.0963 135.154 55.679C138.305 57.8717 141.436 61.9614 142.996 66.3014C145.162 72.3714 149.516 71.2333 157.666 78.9991C165.816 86.7648 160.879 99.3032 165.29 101.022C169.702 102.74 170.506 109.929 170.104 115.244C169.702 120.559 173.846 126 180.523 127.851C187.199 129.702 186.953 138.701 186.953 138.701Z" fill="#FFCB74"/>
<path d="M109.21 214.853C106.502 214.762 103.445 213.354 100.782 211.025C96.1447 206.988 92.6936 200.182 94.3063 192.728C94.5426 193.703 94.8372 194.666 95.1886 195.611C97.1008 200.865 102.46 211.45 114.627 211.264C114.627 211.268 116.63 215.099 109.21 214.853Z" fill="#FDFDFD"/>
<path d="M106.572 161.088C111.209 163.605 116.341 165.244 121.669 165.91L119.839 172.583C119.839 172.583 111.734 171.267 107.118 168.918C106.256 168.479 105.573 167.791 105.173 166.96C104.773 166.128 104.678 165.199 104.902 164.313C105.275 162.829 105.854 161.221 106.572 161.088Z" fill="#FDFDFD"/>
<path d="M109.621 174.685L105.534 186.055L111.102 188.403L115.969 176.54L109.621 174.685Z" fill="#EE7671"/>
<path d="M163.304 153.922C159.139 156.251 144.017 155.174 135.81 149.957C135.318 149.646 134.846 149.316 134.407 148.975C126.635 142.905 132.421 140.325 133.328 133.011C134.235 125.696 123.664 119.562 122.326 107.039C120.988 94.5156 109.958 94.8418 109.478 88.7832C109.437 88.263 109.367 87.7451 109.268 87.2316C109.17 86.727 109.047 86.23 108.899 85.7444C108.842 85.5509 108.78 85.3651 108.719 85.1792C108.231 83.7306 107.541 82.3469 106.667 81.063C105.276 79.0523 103.794 77.9635 103.212 78.5591C102.629 79.1547 102.99 80.0197 103.454 81.0364C103.459 81.0495 103.466 81.0622 103.474 81.0743C103.995 82.2125 104.685 83.4606 104.615 84.5532C104.484 86.6549 101.406 85.3575 101.139 81.5182C100.873 77.6789 99.8015 68.2932 95.9975 63.7218C92.1935 59.1503 90.0268 54.1767 89.8955 50.0985C89.8381 48.3382 90.351 47.1507 91.065 46.9648C92.0006 46.7107 93.2809 48.1826 94.0401 52.3254C95.2219 58.7937 102.617 62.7316 104.27 63.5397L104.599 63.6952C110.216 65.3 106.47 63.8166 114.037 65.1786C121.604 66.5405 121.965 70.3684 119.823 72.7167C117.681 75.0651 121.427 74.2001 120.492 78.2784C120.393 78.697 120.327 79.1218 120.295 79.5493C120.028 82.9636 122.129 86.1541 130.143 89.6785C130.582 89.872 131.038 90.0579 131.514 90.2628C141.732 94.4662 140.283 100.885 139.212 106.454C138.141 112.024 144.957 112.524 146.434 119.987C147.912 127.449 152.848 127.392 163.419 131.835C173.99 136.277 167.703 151.448 163.304 153.922Z" fill="white"/>
<path opacity="0.18" d="M160.431 143.868L135.81 149.957C135.318 149.646 134.846 149.316 134.407 148.975C126.634 142.905 132.42 140.325 133.327 133.011C134.234 125.696 123.663 119.562 122.326 107.039C120.988 94.5155 109.957 94.8418 109.477 88.7832C109.437 88.263 109.367 87.7451 109.268 87.2316C110.832 91.7082 115.723 92.0003 121.222 95.665C127.279 99.7016 129.868 104.254 127.923 111.033C125.978 117.813 136.286 128.458 146.446 131.14C156.607 133.822 160.431 143.868 160.431 143.868Z" fill="#FFCB74"/>
<path d="M200.991 207.064C198.061 210.202 171.934 218.468 160.477 220.384C159.202 220.618 157.906 220.745 156.607 220.763C149.118 220.638 139.138 214.841 139.138 214.841C139.138 214.841 127.685 146.687 125.165 143.383C125.165 143.383 124.222 141.937 126.08 142.791C126.08 142.791 145.174 151.827 153.734 152.309C154.157 152.336 154.58 152.336 155.002 152.309C162.754 151.816 199.387 142.787 199.387 142.787C199.387 142.787 203.929 166.896 203.519 190.258C203.519 190.258 204.34 203.483 200.991 207.064Z" fill="url(#paint6_linear_9_8083)"/>
<path d="M160.477 220.388C159.202 220.622 157.906 220.749 156.607 220.767C149.118 220.642 139.138 214.845 139.138 214.845C139.138 214.845 127.685 146.687 125.165 143.383C125.165 143.383 124.222 141.937 126.08 142.791C126.08 142.791 145.174 151.827 153.734 152.309C153.734 152.309 163.546 208.988 160.477 220.388Z" fill="url(#paint7_linear_9_8083)"/>
<path d="M106.752 176.142C107.533 173.73 107.297 171.533 106.225 171.236C105.152 170.939 103.649 172.654 102.868 175.067C102.087 177.48 102.323 179.676 103.395 179.973C104.468 180.27 105.971 178.555 106.752 176.142Z" fill="#FDFDFD"/>
<path d="M162.352 160.409L197.917 153.053L198.697 164.4L163.689 172.583L162.352 160.409Z" fill="#FDFDFD"/>
<path opacity="0.65" d="M197.918 153.053L195.71 152.313L160.415 159.483L161.954 172.211L163.69 172.583L162.352 160.409L197.918 153.053Z" fill="#FFCB74"/>
<path d="M175.205 210.058C174.504 210.144 173.792 210.095 173.114 209.912C172.436 209.73 171.806 209.418 171.265 208.998C170.725 208.578 170.285 208.058 169.974 207.471C169.663 206.885 169.488 206.245 169.46 205.592L167.818 182.989C167.724 181.622 168.185 180.271 169.112 179.202C170.039 178.133 171.365 177.423 172.829 177.211C173.529 177.125 174.241 177.174 174.919 177.357C175.598 177.539 176.227 177.85 176.768 178.271C177.309 178.691 177.749 179.211 178.06 179.797C178.371 180.384 178.546 181.024 178.574 181.677L180.215 204.28C180.311 205.647 179.85 206.998 178.922 208.067C177.995 209.136 176.669 209.846 175.205 210.058Z" fill="#28383B"/>
<path d="M176.435 208.646C175.795 208.725 175.144 208.68 174.524 208.514C173.904 208.347 173.328 208.063 172.834 207.679C172.339 207.295 171.936 206.821 171.651 206.285C171.366 205.749 171.205 205.164 171.178 204.568L169.685 183.922C169.589 182.668 170.007 181.426 170.855 180.442C171.703 179.458 172.92 178.805 174.264 178.611C174.905 178.532 175.556 178.576 176.177 178.743C176.798 178.909 177.374 179.194 177.869 179.578C178.363 179.962 178.766 180.438 179.051 180.974C179.335 181.511 179.495 182.096 179.521 182.693L181.007 203.354C181.098 204.605 180.679 205.842 179.833 206.821C178.987 207.801 177.775 208.452 176.435 208.646Z" fill="#EE7671"/>
<path d="M195.311 203.764C194.678 203.842 194.033 203.797 193.419 203.632C192.805 203.466 192.235 203.185 191.746 202.805C191.256 202.424 190.858 201.954 190.576 201.424C190.294 200.893 190.134 200.314 190.108 199.723L188.635 179.271C188.552 178.039 188.969 176.822 189.804 175.858C190.64 174.894 191.834 174.253 193.153 174.059C193.786 173.98 194.43 174.025 195.044 174.189C195.658 174.354 196.228 174.635 196.717 175.015C197.206 175.395 197.605 175.865 197.886 176.396C198.168 176.926 198.326 177.505 198.352 178.095L199.825 198.532C199.913 199.767 199.498 200.988 198.664 201.956C197.829 202.923 196.633 203.568 195.311 203.764Z" fill="#28383B"/>
<path d="M196.395 202.485C195.816 202.557 195.227 202.516 194.666 202.365C194.105 202.215 193.584 201.957 193.136 201.61C192.688 201.263 192.324 200.833 192.066 200.348C191.809 199.863 191.663 199.334 191.639 198.794L190.293 180.098C190.217 178.968 190.599 177.851 191.366 176.967C192.132 176.083 193.228 175.495 194.438 175.318C195.017 175.247 195.606 175.287 196.167 175.438C196.729 175.589 197.25 175.846 197.697 176.193C198.145 176.541 198.509 176.971 198.767 177.456C199.024 177.94 199.17 178.47 199.194 179.01L200.54 197.705C200.616 198.836 200.234 199.952 199.467 200.836C198.701 201.72 197.606 202.308 196.395 202.485Z" fill="#EE7671"/>
<path d="M83.506 30.7086C82.1641 32.0478 79.4353 34.6427 74.8885 34.123C73.1258 33.8858 71.4297 33.3343 69.8945 32.4993L69.6113 32.3551C64.687 29.6995 57.7561 20.8904 53.0001 13.6178C52.5514 12.935 52.1246 12.2673 51.7198 11.6147C51.7198 11.6147 51.691 11.5692 51.6746 11.5465C49.5736 8.17003 48.0881 5.3437 47.7188 3.95898C46.9596 1.17438 48.3384 0.32458 49.4751 0.0817806C50.0775 -0.0430092 50.7043 -0.0247374 51.2971 0.134893C54.5753 0.980899 57.7643 2.09825 60.8256 3.47338C60.8614 3.48679 60.8957 3.5033 60.9282 3.5227C71.384 8.22314 78.8484 14.9494 82.9479 18.1362C83.0587 18.2272 83.1736 18.3145 83.2803 18.3941L83.3377 18.4397C88.4508 22.4345 85.2992 28.9218 83.506 30.7086Z" fill="#FFCB74" fill-opacity="0.2"/>
<path opacity="0.15" d="M83.3377 18.451L80.2395 17.5747C74.7075 11.9165 68.1744 7.16982 60.9199 3.53784C71.384 8.22311 78.8484 14.9494 82.9479 18.1361C83.0587 18.2272 83.1736 18.3144 83.2803 18.3941L83.3377 18.451Z" fill="#B69153"/>
<path opacity="0.15" d="M74.8923 34.1382C73.1296 33.901 71.4336 33.3496 69.8983 32.5145L69.6151 32.3703C64.6909 29.7147 57.7599 20.9057 53.0039 13.6331C53.4471 14.1528 67.8014 30.7694 73.3125 33.1442C73.8971 33.3889 74.4316 33.7251 74.8923 34.1382Z" fill="#B69153"/>
<path d="M83.5061 30.7086C81.7252 32.4803 77.519 36.4599 69.8987 32.5144C67.7443 29.6502 68.3475 25.0711 71.577 21.5392C74.8065 18.0072 79.538 16.7021 82.948 18.1476C83.0588 18.2386 83.1737 18.3259 83.2804 18.4055C88.4755 22.3852 85.3076 28.9142 83.5061 30.7086Z" fill="#FFCB74"/>
<path d="M82.8201 30.3186C85.9075 26.9399 86.1198 22.412 83.2944 20.2054C80.4689 17.9987 75.6756 18.949 72.5882 22.3277C69.5009 25.7065 69.2885 30.2344 72.114 32.441C74.9394 34.6476 79.7327 33.6974 82.8201 30.3186Z" fill="#1B232A"/>
<path d="M65.5199 36.4902C65.2737 36.293 55.5605 28.3451 61.5189 22.0057L66.3693 26.7972L67.4158 27.8329C67.4158 27.8329 64.0262 30.9021 65.5199 36.4902Z" fill="#B69153"/>
<path d="M87.757 14.8242C81.6591 13.6558 78.4666 16.9032 78.4666 16.9032L77.3463 16.0117L71.9419 11.6868C78.5651 5.93551 87.5355 14.608 87.7529 14.8242H87.757Z" fill="#B69153"/>
<path d="M61.7241 15.9206C64.063 15.9206 65.959 14.1677 65.959 12.0055C65.959 9.8432 64.063 8.09033 61.7241 8.09033C59.3853 8.09033 57.4893 9.8432 57.4893 12.0055C57.4893 14.1677 59.3853 15.9206 61.7241 15.9206Z" fill="white"/>
<path d="M140.566 293.793C140.566 293.831 140.566 293.873 140.566 293.914C140.476 295.728 137.693 298.197 134.062 299.848C130.43 301.498 118.374 301.578 115.522 298.118C114.291 296.6 113.975 295.341 114.028 294.385C114.045 293.678 114.299 292.995 114.754 292.427C114.754 292.427 117.217 293.095 123.007 294.905C128.797 296.714 140.119 291.281 140.119 291.281C140.119 291.281 140.627 292.063 140.566 293.793Z" fill="white"/>
<path opacity="0.56" d="M140.566 293.793C137.185 295.993 130.139 298.11 123.951 297.788C116.322 297.386 114.156 294.563 114.024 294.373C114.042 293.667 114.295 292.983 114.751 292.416C114.751 292.416 117.213 293.084 123.003 294.893C128.793 296.703 140.115 291.27 140.115 291.27C140.115 291.27 140.628 292.063 140.566 293.793Z" fill="#FFCB74"/>
<path d="M114.394 287.078C114.394 287.078 118.546 291.524 126.749 292.101C134.952 292.678 141.284 288.102 141.284 288.102C141.284 288.102 143.336 290.288 138.157 293.008C132.979 295.728 128.978 297.211 121.669 295.663C114.361 294.115 112.379 290.788 114.394 287.078Z" fill="#FDFDFD"/>
<path d="M114.02 258.409L115.341 257.68C115.717 257.474 116.14 257.351 116.576 257.322C117.012 257.293 117.449 257.359 117.853 257.513C124.255 259.881 131.025 261.29 137.907 261.687C138.154 261.7 138.396 261.761 138.616 261.867C138.836 261.972 139.029 262.119 139.184 262.297C139.339 262.476 139.451 262.683 139.514 262.905C139.577 263.126 139.588 263.357 139.548 263.583L137.591 274.972C137.517 275.397 137.328 275.797 137.041 276.136C136.754 276.474 136.378 276.74 135.949 276.907L133.963 277.666L114.02 258.409Z" fill="#FFCB74"/>
<path d="M144.395 356.041C143.984 356.693 136.52 357.964 131.399 358.461H131.304C131.136 358.484 131.017 358.491 130.947 358.495H130.886L132.938 358.844C131.02 359.101 129.088 359.256 127.152 359.307C124.07 359.307 122.116 358.875 121.739 358.013C121.571 357.634 121.702 357.186 122.149 356.651C123.684 354.876 128.461 352.748 128.087 350.445C127.948 349.622 126.204 342.694 123.943 333.635C123.943 333.635 124.238 333.673 124.763 333.722C127.041 333.927 133.676 334.295 139.7 332.326C141.192 331.852 142.618 331.215 143.947 330.429C144.001 330.808 144.046 331.165 144.095 331.533C145.749 344.614 144.908 355.251 144.395 356.041Z" fill="#FFCB74"/>
<path d="M123.938 333.654C123.938 333.654 122.707 333.32 123.249 332.516C123.791 331.711 132.207 333.013 138.223 331.343C144.239 329.674 143.906 328.308 144.571 328.437C145.236 328.566 145.773 329.344 144.444 330.129C143.114 330.915 141.075 335.532 123.938 333.654Z" fill="#FDFDFD"/>
<path opacity="0.56" d="M144.091 331.544C145.732 344.614 144.912 355.251 144.395 356.041C143.96 356.716 135.986 358.055 130.853 358.514C134.062 356.132 137.579 351.849 136.844 344.728C135.547 332.095 127.714 309.897 131.961 283.626C136.208 257.354 148.913 237.262 148.913 237.262L159.726 237.156L169.673 236.143C169.673 236.143 140.652 286.498 140.115 291.285C139.577 296.073 141.9 316.005 143.861 329.849C143.943 330.414 144.017 330.979 144.091 331.544Z" fill="#FFCB74"/>
<path d="M61.7244 14.7711C63.3766 14.7711 64.7159 13.5329 64.7159 12.0055C64.7159 10.4781 63.3766 9.23987 61.7244 9.23987C60.0722 9.23987 58.7329 10.4781 58.7329 12.0055C58.7329 13.5329 60.0722 14.7711 61.7244 14.7711Z" fill="#1B232A"/>
<path d="M60.92 3.53787C54.4774 4.67599 52.3559 8.57216 51.7116 11.6185C51.7116 11.6185 51.6829 11.573 51.6665 11.5502C49.5655 8.17381 48.08 5.34748 47.7107 3.96277C46.9515 1.17816 48.3303 0.328364 49.467 0.0855648C50.0694 -0.039225 50.6962 -0.0209532 51.289 0.138677C54.5671 0.984683 57.7562 2.10203 60.8175 3.47717L60.92 3.53787Z" fill="#B69153"/>
<path opacity="0.65" d="M158.741 156.915C158.741 156.915 160.284 162.408 157.776 165.375C155.269 168.342 152.938 170.648 155.975 176.498C159.012 182.348 158.363 187.045 153.472 189.845C148.58 192.644 146.496 196.863 149.639 201.882C152.782 206.901 136.565 195.118 138.83 189.613C141.095 184.108 147.755 176.752 147.768 169.833C147.78 162.913 150.87 159.787 150.87 159.787L158.741 156.915Z" fill="#FFCB74"/>
<path d="M196.842 196.347C196.475 196.393 196.102 196.367 195.746 196.271C195.39 196.176 195.059 196.013 194.775 195.793C194.491 195.572 194.26 195.3 194.097 194.992C193.933 194.684 193.841 194.349 193.826 194.006L192.973 182.151C192.923 181.433 193.164 180.723 193.651 180.162C194.138 179.6 194.834 179.227 195.603 179.116C195.97 179.071 196.344 179.097 196.7 179.193C197.055 179.288 197.386 179.451 197.669 179.672C197.953 179.892 198.184 180.164 198.348 180.472C198.511 180.779 198.604 181.114 198.619 181.457L199.473 193.312C199.524 194.03 199.283 194.74 198.796 195.302C198.309 195.864 197.612 196.237 196.842 196.347Z" fill="white"/>
<path d="M85.8326 24.521C84.4736 23.5006 82.7413 23.004 80.9962 23.1348C79.2512 23.2656 77.6279 24.0137 76.4645 25.2232C75.3011 26.4327 74.6872 28.0105 74.7506 29.6281C74.8139 31.2456 75.5497 32.7782 76.8048 33.9067C76.8048 33.9067 82.0409 39.2976 96.8343 41.995C96.8343 41.995 96.2023 35.8036 86.9857 25.7274C86.6581 25.2818 86.2706 24.8764 85.8326 24.521Z" fill="url(#paint8_linear_9_8083)"/>
<path opacity="0.65" d="M178.257 148.022C178.681 149.406 179.672 150.582 181.019 151.3C183.342 152.601 182.275 155.295 186.764 156.915C191.253 158.535 193.937 158.292 192.156 162.822C190.375 167.351 201.742 160.056 198.685 155.424C195.628 150.792 184.232 146.744 183.965 146.657C183.699 146.569 178.253 145.01 178.257 148.022Z" fill="#FFCB74"/>
<path d="M83.2062 25.8375C82.8147 25.5137 82.358 25.2643 81.8623 25.1036C81.3665 24.943 80.8414 24.8741 80.3169 24.9011C79.7924 24.928 79.2787 25.0502 78.8053 25.2607C78.3319 25.4712 77.9079 25.7658 77.5576 26.1277C77.2074 26.4897 76.9376 26.9118 76.7638 27.3702C76.59 27.8285 76.5156 28.314 76.5447 28.7989C76.5739 29.2838 76.7061 29.7586 76.9337 30.1963C77.1614 30.634 77.4801 31.026 77.8716 31.3498C77.8716 31.3498 80.9492 34.5176 89.6365 36.0996C89.6365 36.0996 89.2672 32.4652 83.8505 26.5469C83.6686 26.2865 83.4521 26.0482 83.2062 25.8375Z" fill="white"/>
<path d="M140.652 77.7852C139.138 80.8202 130.393 78.0318 127.55 70.1218C126.528 67.2765 125.12 65.6604 123.639 64.473C123.069 64.0225 122.475 63.5995 121.858 63.2058C119.806 61.8666 117.799 60.7513 116.696 57.7618C114.467 51.7488 110.191 52.4885 106.297 50.4285C105.388 49.9674 104.574 49.3612 103.892 48.6379C102.551 47.1621 102.702 45.895 102.702 45.895C103.523 48.3685 108.497 49.8519 112.329 50.5917C116.162 51.3314 116.519 53.9719 117.143 56.4454C117.767 58.9189 121.152 59.985 128.633 64.5185C136.114 69.052 142.166 74.735 140.652 77.7852Z" fill="white"/>
<path d="M115.522 258.511C118.563 259.998 125.248 262.65 135.076 263.181C135.34 263.196 135.598 263.262 135.833 263.375C136.068 263.488 136.275 263.645 136.441 263.836C136.606 264.027 136.727 264.248 136.794 264.485C136.861 264.722 136.874 264.969 136.832 265.211L134.862 276.463C134.788 276.893 134.542 277.282 134.175 277.555C133.807 277.827 133.342 277.962 132.872 277.935C128.535 277.677 117.106 276.592 111.661 272.116C111.443 271.934 111.274 271.708 111.169 271.454C111.065 271.201 111.026 270.928 111.057 270.659C111.275 268.542 111.911 262.923 112.806 259.634C112.875 259.377 113.007 259.138 113.191 258.935C113.375 258.732 113.607 258.57 113.869 258.462C114.13 258.354 114.415 258.302 114.701 258.311C114.988 258.319 115.268 258.388 115.522 258.511Z" fill="#FDFDFD"/>
<path opacity="0.31" d="M188.373 166.221C188.373 166.221 185.029 166.858 186.19 172.871C187.351 178.884 190.741 182.511 196.268 182.356C201.796 182.2 199.223 176.085 199.223 176.085C199.223 176.085 193.236 175.352 191.016 172.056C188.796 168.759 188.373 166.221 188.373 166.221Z" fill="#FFCB74"/>
<path d="M188.409 288.273C188.345 288.845 188.136 289.395 187.798 289.878C186.374 292.018 179.066 294.491 172.914 294.81C166.763 295.128 163.887 292.716 164.358 291.395C164.83 290.075 165.073 289.707 165.873 289.624C166.673 289.54 182.361 290.037 187.798 286.164C188.282 286.77 188.501 287.524 188.409 288.273Z" fill="white"/>
<path opacity="0.56" d="M188.41 288.273C187.548 289.032 185.853 290.731 178.011 292.264C170.001 293.831 164.359 291.399 164.359 291.399C164.847 290.071 165.073 289.711 165.873 289.627C166.673 289.544 182.361 290.041 187.798 286.167C188.282 286.773 188.5 287.525 188.41 288.273Z" fill="#FFCB74"/>
<path d="M164.756 286.828C164.756 286.828 176.246 292.139 187.946 283.626C187.946 283.626 189.058 284.931 187.269 286.828C185.479 288.725 182.008 290.785 175.323 291.285C168.638 291.786 165.064 290.709 164.268 289.555C163.472 288.402 164.756 286.828 164.756 286.828Z" fill="#FDFDFD"/>
<path d="M187.515 327.068C187.515 327.235 187.515 327.406 187.494 327.576C187.153 336.302 187.42 349.895 185.582 351.591C184.191 352.877 178.273 353.487 173.817 353.586C173.189 353.586 172.586 353.609 172.036 353.609C171.601 353.821 171.322 353.95 171.273 353.988C170.277 354.013 169.281 353.94 168.302 353.772C167.789 353.632 167.99 353.097 168.568 352.361C170.103 350.399 174.313 346.977 174.724 345.585C174.954 344.8 173.759 338.525 172.167 330.368L172.311 330.403C173.226 330.604 178.392 331.613 183.009 329.989C184.757 329.388 186.308 328.382 187.515 327.068Z" fill="#FFCB74"/>
<path d="M172.139 330.361C172.139 330.361 170.977 329.981 171.318 329.496C171.659 329.01 174.757 330.053 178.019 329.928C181.281 329.803 186.28 327.5 187.589 325.531C188.898 323.562 188.553 325.933 187.818 326.723C187.084 327.512 184.261 332.58 172.139 330.361Z" fill="white"/>
<path opacity="0.56" d="M187.712 323.741C187.61 324.837 187.54 326.142 187.482 327.576C187.142 336.302 187.409 349.895 185.57 351.591C184.179 352.877 178.262 353.487 173.805 353.586C175.915 351.731 178.73 348.821 179.788 345.741C181.582 340.551 174.253 308.664 173.633 297.329C173.013 285.993 167.203 240.423 167.203 240.423L169.665 236.136L170.896 235.92L181.003 233.753L184.864 232.52C192.025 230.551 196.207 224.258 196.207 224.258C196.207 224.258 189.641 278.087 187.696 284.514C185.751 290.94 188.422 315.998 187.712 323.741Z" fill="#FFCB74"/>
<path opacity="0.18" d="M106.65 81.0288C105.259 79.0181 103.777 77.9293 103.195 78.5249C102.612 79.1206 102.973 79.9855 103.437 81.0022C103.174 80.5129 100.4 75.2813 100.589 71.9959C100.782 68.5816 97.3882 63.1224 97.2856 62.9554C97.4129 63.1034 100.072 66.2256 100.724 68.6461C101.389 71.1196 102.46 74.2077 104.065 75.5658C105.669 76.924 106.593 80.786 106.65 81.0288Z" fill="#FFCB74"/>
<path opacity="0.18" d="M130.143 89.6785C129.732 89.5647 118.205 86.4007 115.969 81.0288C113.691 75.5582 113.285 71.112 109.21 68.7636C105.419 66.5785 103.026 64.9244 102.714 64.7043C103.227 64.9889 108.759 68.0277 111.102 68.1453C113.564 68.2667 119.01 73.0771 119.092 76.3018C119.182 77.4663 119.607 78.5874 120.323 79.5492C120.044 82.9522 122.145 86.1541 130.143 89.6785Z" fill="#FFCB74"/>
<path d="M108.727 85.1602C108.827 85.3354 108.889 85.5277 108.907 85.7254C108.837 85.5319 108.776 85.346 108.727 85.1602Z" fill="#FFCB74"/>
<path opacity="0.18" d="M168.228 72.0073C167.956 72.6405 167.618 73.2478 167.219 73.8207C166.197 75.2964 165.528 76.7077 165.421 78.0507C165.319 75.7744 164.634 69.8866 160.419 68.0125C155.134 65.6717 150.583 63.9418 150.583 63.9418C150.583 63.9418 165.311 64.4881 168.228 72.0073Z" fill="#FFCB74"/>
<path opacity="0.18" d="M134.201 54.6547C128.169 48.6948 123.758 51.8929 122.916 46.9345C121.981 41.4222 110.667 41.0352 110.667 41.0352C110.667 41.0352 105.534 41.6953 105.136 39.5974C104.976 38.7628 105.431 38.3758 106.277 38.3037C106.277 38.3037 104.635 39.715 108.3 39.9654C111.964 40.2158 122.022 42.0254 123.893 44.4951C125.764 46.9648 127.558 49.5218 131.161 51.1683C132.79 51.9005 133.697 53.3269 134.201 54.6547Z" fill="#FFCB74"/>
<path opacity="0.18" d="M104.27 63.5397C102.942 63.2623 101.638 62.8958 100.367 62.4433C93.5924 60.0381 92.8784 54.3854 92.5214 51.0052C92.1644 47.6249 91.0811 46.9686 91.0811 46.9686C92.0167 46.7144 93.297 48.1864 94.0561 52.3292C95.2216 58.7937 102.616 62.7316 104.27 63.5397Z" fill="#FFCB74"/>
<path d="M145.174 150.424C137.304 148.591 126.081 142.791 126.081 142.791C126.275 142.346 126.509 141.917 126.782 141.509C126.93 141.383 130.233 138.648 133.918 140.822C137.69 143.049 137.513 145.109 140.989 145.109C144.465 145.109 145.507 148.986 145.174 150.424Z" fill="url(#paint9_linear_9_8083)"/>
<path opacity="0.18" d="M171.24 149.346L159.528 151.695C159.149 151.768 158.797 151.932 158.509 152.171C158.221 152.41 158.006 152.716 157.887 153.057C157.887 153.057 157.017 149.84 160.427 148.36C163.837 146.88 168.179 146.596 168.942 143.868C169.151 143.174 169.561 142.546 170.128 142.051C171.379 145.226 171.24 149.346 171.24 149.346Z" fill="#FFCB74"/>
<path opacity="0.18" d="M135.658 168.505C139.093 175.922 139.581 180.129 137.624 183.164C138.888 180.25 138.285 176.942 134.394 171.824C129.417 165.273 132.552 156.126 140.139 154.517C144.883 153.512 145.671 152.158 145.597 151.281C145.843 152.158 145.843 153.58 144.198 155.075C141.498 157.503 132.224 161.088 135.658 168.505Z" fill="#FFCB74"/>
<path opacity="0.18" d="M149.815 186.233C151.994 181.085 147.764 180.637 147.247 173.679C146.721 166.471 154.223 162.928 154.461 162.822C152.589 164.552 149.791 166.782 153.472 175.58C156.192 182.071 153.119 184.302 149.815 186.233Z" fill="#FFCB74"/>
<path d="M194.671 157.613C194.545 157.368 194.394 157.134 194.22 156.915C192.168 154.259 188.98 156.733 186.965 154.089C184.95 151.444 185.484 149.84 183.477 149.84C181.47 149.84 180.604 149.043 180.231 148.235C179.858 147.427 174.026 148.736 174.026 148.736C174.026 148.736 172.565 144.1 175.348 142.521C177.588 141.251 178.676 141.459 179.041 140.048C179.439 139.995 179.841 139.973 180.243 139.983C184.56 140.078 182.82 143.159 185.36 145.204C187.901 147.248 187.15 151.941 192.07 153.057C195.537 153.842 195.176 156.262 194.671 157.613Z" fill="url(#paint10_linear_9_8083)"/>
<path opacity="0.18" d="M189.091 142.594C189.091 142.594 186.017 140.788 186.953 138.701C187.463 137.374 187.767 135.987 187.856 134.581C191.689 137.043 187.068 140.42 189.091 142.594Z" fill="#FFCB74"/>
<path opacity="0.18" d="M193.236 170.853C193.203 172.124 194.262 172.796 195.501 173.38C195.501 173.38 190.962 172.211 191.5 168.258C192.037 164.305 200.15 163 201.504 156.915C201.907 155.359 202.02 153.752 201.837 152.161C202.715 153.171 203.396 154.703 203.614 157.01C204.2 163.19 193.322 167.663 193.236 170.853Z" fill="#FFCB74"/>
<path opacity="0.18" d="M229.913 142.047C229.778 141.926 227.385 139.771 227.816 135.298C228.264 130.685 228.383 124.52 217.41 124.387C222.995 122.851 230.131 123.094 230.668 129.433C231.296 137.089 228.551 139.433 229.913 142.047Z" fill="#FFCB74"/>
<path opacity="0.18" d="M231.071 162.818C223.984 167.268 228.666 172.211 223.048 174.685C218.239 176.802 216.277 178.262 215.559 180.474C215.559 180.19 215.855 176.043 220.155 172.583C224.607 168.998 221.579 164.218 226.659 160.511C231.739 156.805 233.611 151.118 231.584 148.235C233.498 148.879 235.121 150.102 236.188 151.706C236.701 155.769 235.207 160.219 231.071 162.818Z" fill="#FFCB74"/>
<path d="M114.882 118.985C114.882 118.985 105.095 117.665 100.372 112.156C95.6487 106.648 95.6364 102.042 97.2901 100.631C98.9439 99.2197 99.7523 104.098 100.191 105.904C100.63 107.71 102.473 115.358 114.882 118.985Z" fill="#FFA000"/>
<path d="M101.968 108.594C101.968 108.594 100.737 106.295 100.991 104.853C101.246 103.412 101.697 105.832 101.968 106.724C102.123 107.339 102.123 107.979 101.968 108.594Z" fill="#FFA000"/>
<path d="M176.997 201.112C176.608 201.16 176.213 201.133 175.836 201.032C175.459 200.931 175.109 200.759 174.808 200.525C174.507 200.292 174.262 200.004 174.089 199.678C173.915 199.353 173.817 198.997 173.801 198.635L172.898 186.074C172.841 185.313 173.096 184.56 173.613 183.966C174.129 183.371 174.869 182.978 175.684 182.864C176.073 182.815 176.469 182.842 176.846 182.943C177.223 183.044 177.573 183.216 177.874 183.449C178.174 183.683 178.419 183.972 178.592 184.297C178.764 184.623 178.861 184.979 178.877 185.341L179.784 197.902C179.84 198.663 179.585 199.416 179.069 200.011C178.553 200.605 177.813 200.998 176.997 201.112Z" fill="white"/>
<path d="M115.038 259.395C115.038 259.395 122.055 262.768 127.299 263.344C132.543 263.921 135.125 264.005 134.948 265.735C134.772 267.464 134.058 276.357 132.987 276.736C131.916 277.116 121.579 275.868 117.479 274.221C113.38 272.575 112.042 271.418 112.145 270.678C112.247 269.938 114.032 259.395 114.032 259.395C114.032 259.395 114.381 258.739 115.038 259.395Z" stroke="white" stroke-miterlimit="10"/>
<path opacity="0.29" d="M109.211 214.853C106.502 214.762 103.445 213.354 100.782 211.025C100.687 210.797 98.8655 206.26 96.8055 203.798C94.7455 201.336 95.164 195.793 95.1887 195.615C97.1009 200.869 102.46 211.454 114.627 211.268C114.627 211.268 116.63 215.099 109.211 214.853Z" fill="#FFCB74"/>
<path d="M106.675 163.436C106.675 163.436 115.702 166.824 119.859 166.851C119.859 166.851 120.114 168.748 118.85 168.933C117.586 169.119 109.03 167.067 107.606 166.187C106.182 165.307 106.675 163.436 106.675 163.436Z" stroke="white" stroke-miterlimit="10"/>
<path d="M111.463 179.283C112.209 179.283 112.813 178.724 112.813 178.035C112.813 177.345 112.209 176.786 111.463 176.786C110.718 176.786 110.113 177.345 110.113 178.035C110.113 178.724 110.718 179.283 111.463 179.283Z" stroke="white" stroke-miterlimit="10"/>
<path d="M109.124 185.011C109.87 185.011 110.475 184.452 110.475 183.763C110.475 183.074 109.87 182.515 109.124 182.515C108.379 182.515 107.774 183.074 107.774 183.763C107.774 184.452 108.379 185.011 109.124 185.011Z" stroke="white" stroke-miterlimit="10"/>
<path d="M177.69 205.046C178.436 205.046 179.04 204.487 179.04 203.798C179.04 203.109 178.436 202.55 177.69 202.55C176.945 202.55 176.34 203.109 176.34 203.798C176.34 204.487 176.945 205.046 177.69 205.046Z" stroke="white" stroke-miterlimit="10"/>
<path d="M197.544 200.27C198.29 200.27 198.894 199.711 198.894 199.022C198.894 198.332 198.29 197.773 197.544 197.773C196.798 197.773 196.194 198.332 196.194 199.022C196.194 199.711 196.798 200.27 197.544 200.27Z" stroke="white" stroke-miterlimit="10"/>
<path opacity="0.25" d="M94.6636 100.365C94.6636 100.365 110.905 107.74 118.378 118.594C125.851 129.448 126.335 120.927 124.447 118.594C122.56 116.261 119.396 108.048 111.599 102.782C103.802 97.5163 95.9562 94.891 94.6636 100.365Z" fill="white"/>
<path opacity="0.25" d="M124.041 126.049C124.041 126.049 124.234 124.118 126.093 124.126C127.951 124.133 128.616 125.833 127.906 126.622C127.196 127.411 123.581 128.211 124.041 126.049Z" fill="white"/>
<path d="M145.187 354.201C145.059 355.491 144.908 356.291 144.776 356.477C144.202 357.361 131.542 359.311 127.131 359.311C124.049 359.311 122.096 358.878 121.718 358.017C121.718 358.032 140.381 357.456 145.187 354.201Z" fill="#FDFDFD"/>
<path d="M186.452 351.116C186.356 351.383 186.202 351.63 186.001 351.841C183.744 353.935 170.178 354.284 168.29 353.757C167.777 353.616 167.978 353.081 168.557 352.346C168.557 352.346 178.541 353.522 186.452 351.116Z" fill="#FDFDFD"/>
<path opacity="0.18" d="M121.858 63.2058C119.806 61.8666 117.8 60.7512 116.696 57.7618C114.467 51.7487 110.192 52.4885 106.297 50.4285C105.388 49.9674 104.574 49.3611 103.893 48.6378C107.11 50.2084 112.563 51.6349 113.844 52.2419C115.584 53.0651 117.352 57.0182 118.255 59.3286C118.76 60.6602 120.479 62.1701 121.858 63.2058Z" fill="#FFCB74"/>
<path d="M65.5202 36.4902C65.4258 36.3309 62.6477 31.5394 66.3696 26.7972L67.416 27.8329C67.416 27.8329 64.0265 30.9021 65.5202 36.4902Z" fill="url(#paint11_linear_9_8083)"/>
<path d="M87.4107 14.7129C81.3128 13.5444 78.1203 16.7919 78.1203 16.7919L77 15.9003C77 15.9003 81.8422 12.5884 87.4067 14.7091L87.4107 14.7129Z" fill="url(#paint12_linear_9_8083)"/>
<path d="M110.372 123.564C110.524 123.564 110.647 123.45 110.647 123.31C110.647 123.17 110.524 123.056 110.372 123.056C110.22 123.056 110.097 123.17 110.097 123.31C110.097 123.45 110.22 123.564 110.372 123.564Z" fill="white"/>
<path opacity="0.56" d="M196.748 222.998C196.613 223.435 196.438 223.86 196.223 224.269C196.128 225.028 189.657 278.14 187.712 284.517C185.767 290.895 188.422 316.005 187.712 323.737C187.622 324.701 187.556 325.827 187.503 327.064C187.503 327.231 187.503 327.402 187.482 327.572C187.141 336.298 187.408 349.891 185.57 351.587C184.179 352.873 178.261 353.484 173.805 353.582C173.177 353.582 172.574 353.605 172.024 353.605C174.667 352.308 183.173 347.88 182.718 344.724C182.5 343.206 182.845 337.22 182.98 329.966C183.173 319.42 182.927 306.187 179.858 300.075C174.679 289.768 170.058 263.428 176.394 249.934C178.639 245.142 179.973 239.345 180.76 233.856C181.027 231.982 181.232 230.149 181.388 228.4C181.491 227.228 181.573 226.09 181.634 225.013C181.708 223.772 181.762 222.607 181.795 221.537C181.795 221.298 181.795 221.063 181.815 220.832C181.815 220.073 181.844 219.405 181.848 218.783C181.848 216.359 181.803 214.883 181.803 214.883L195.279 210.099C195.402 212.44 195.353 211.617 195.39 212.451C195.39 212.831 195.418 213.058 195.418 213.058C196.093 213.729 196.538 214.568 196.699 215.471C196.699 215.471 197.24 217.694 196.74 219.55C196.239 221.405 197.249 221.405 196.748 222.998Z" fill="#FFCB74"/>
<path opacity="0.56" d="M169.673 236.143L158.88 262.13C158.445 260.37 158.06 258.716 157.711 257.233L169.673 236.143Z" fill="#FFCB74"/>
<path opacity="0.56" d="M140.114 291.285C139.581 296.065 141.899 316.005 143.861 329.849C143.89 330.05 143.918 330.251 143.943 330.448C143.996 330.827 144.042 331.184 144.091 331.552C145.732 344.621 144.911 355.259 144.394 356.048C143.984 356.701 136.52 357.972 131.398 358.469C133.45 358.165 140.808 356.109 140.57 342.288C140.462 338.965 140.17 335.648 139.696 332.352C137.459 315.444 132.059 292.139 136.856 281.862C142.7 269.365 156.578 245.506 156.459 242.604C156.34 239.702 164.74 236.758 164.74 236.758L169.664 236.151V236.185C168.802 237.653 140.644 286.57 140.114 291.285Z" fill="#FFCB74"/>
<path opacity="0.56" d="M196.748 222.998C196.614 223.435 196.438 223.86 196.223 224.269C195.053 226.496 191.578 230.718 180.761 233.833C175.972 235.157 171.065 236.084 166.099 236.602C165.643 236.655 165.192 236.705 164.74 236.747C147.916 238.476 134.784 236.132 127.299 233.791C136.36 233.947 135.215 231.894 140.57 230.164C145.925 228.434 153.529 229.683 160.415 229.144C167.301 228.605 180.933 223.624 187.622 220.798C190.25 219.734 192.632 218.21 194.635 216.31C195.283 215.701 195.843 215.018 196.301 214.276C196.504 214.656 196.643 215.063 196.711 215.483C196.711 215.483 197.253 217.706 196.752 219.561C196.252 221.416 197.249 221.405 196.748 222.998Z" fill="#FFCB74"/>
<path opacity="0.5" d="M151.606 370.081C235.336 370.081 303.213 364.914 303.213 358.541C303.213 352.167 235.336 347 151.606 347C67.8764 347 0 352.167 0 358.541C0 364.914 67.8764 370.081 151.606 370.081Z" fill="url(#paint13_linear_9_8083)"/>
</g>
<defs>
<linearGradient id="paint0_linear_9_8083" x1="84.1339" y1="81.4233" x2="152.337" y2="136.643" gradientUnits="userSpaceOnUse">
<stop offset="0.41" stop-color="#FFCB74" stop-opacity="0.2"/>
</linearGradient>
<linearGradient id="paint1_linear_9_8083" x1="37284.4" y1="16396.3" x2="51673.7" y2="16396.3" gradientUnits="userSpaceOnUse">
<stop stop-color="#FFCB74" stop-opacity="0.2"/>
<stop offset="0.99" stop-color="#FFCB74"/>
</linearGradient>
<linearGradient id="paint2_linear_9_8083" x1="93.0424" y1="102.926" x2="133.78" y2="129.718" gradientUnits="userSpaceOnUse">
<stop stop-color="#FFA000"/>
<stop offset="0.87" stop-color="#B69153"/>
</linearGradient>
<linearGradient id="paint3_linear_9_8083" x1="2684.17" y1="2492.87" x2="2787.4" y2="2508.32" gradientUnits="userSpaceOnUse">
<stop stop-color="#FFA000"/>
<stop offset="0.87" stop-color="#FFA000"/>
</linearGradient>
<linearGradient id="paint4_linear_9_8083" x1="22812.6" y1="29729.9" x2="31062.7" y2="29729.9" gradientUnits="userSpaceOnUse">
<stop stop-color="#FFCB74" stop-opacity="0.2"/>
<stop offset="0.99" stop-color="#5F9D84"/>
</linearGradient>
<linearGradient id="paint5_linear_9_8083" x1="21263.4" y1="6986.42" x2="26783.8" y2="6986.42" gradientUnits="userSpaceOnUse">
<stop stop-color="white"/>
</linearGradient>
<linearGradient id="paint6_linear_9_8083" x1="163.062" y1="139.191" x2="166.174" y2="211.26" gradientUnits="userSpaceOnUse">
<stop stop-color="#F8BA67"/>
</linearGradient>
<linearGradient id="paint7_linear_9_8083" x1="142.999" y1="142.521" x2="142.999" y2="220.786" gradientUnits="userSpaceOnUse">
<stop stop-color="#F8BA67"/>
<stop offset="0.99" stop-color="#B69153"/>
</linearGradient>
<linearGradient id="paint8_linear_9_8083" x1="76.0826" y1="25.0597" x2="93.1462" y2="41.0344" gradientUnits="userSpaceOnUse">
<stop stop-color="#EE7671"/>
<stop offset="1" stop-color="#1B232A" stop-opacity="0"/>
</linearGradient>
<linearGradient id="paint9_linear_9_8083" x1="9933.08" y1="5558.27" x2="10608.9" y2="6018.32" gradientUnits="userSpaceOnUse">
<stop stop-color="white"/>
</linearGradient>
<linearGradient id="paint10_linear_9_8083" x1="13193" y1="9499.06" x2="14995.2" y2="9705.52" gradientUnits="userSpaceOnUse">
<stop stop-color="#FFCB74"/>
</linearGradient>
<linearGradient id="paint11_linear_9_8083" x1="967.94" y1="1731.7" x2="1439.21" y2="1879.94" gradientUnits="userSpaceOnUse">
<stop stop-color="#FFA000"/>
<stop offset="0.87" stop-color="#1B232A"/>
</linearGradient>
<linearGradient id="paint12_linear_9_8083" x1="3671" y1="390.203" x2="3787.31" y2="833.951" gradientUnits="userSpaceOnUse">
<stop offset="0.995833" stop-color="#FFA000"/>
</linearGradient>
<linearGradient id="paint13_linear_9_8083" x1="151.606" y1="308.285" x2="151.606" y2="387.684" gradientUnits="userSpaceOnUse">
<stop stop-color="white"/>
<stop offset="0.38" stop-color="#FFCB74"/>
<stop offset="0.99" stop-color="#1B1711"/>
</linearGradient>
<clipPath id="clip0_9_8083">
<rect width="304" height="370.081" fill="white"/>
</clipPath>
</defs>
</svg>
