<svg width="70" height="25" viewBox="0 0 70 25" fill="none" xmlns="http://www.w3.org/2000/svg">
<path d="M52.4478 7.96942C52.7622 5.14032 55.1535 3 58 3V3C60.8465 3 63.2378 5.14032 63.5522 7.96942L63.804 10.2356C63.8072 10.2645 63.8088 10.279 63.8104 10.2933C63.9394 11.4169 64.3051 12.5005 64.8836 13.4725C64.8909 13.4849 64.8984 13.4973 64.9133 13.5222L65.4914 14.4856C66.0159 15.3599 66.2782 15.797 66.2216 16.1559C66.1839 16.3946 66.061 16.6117 65.8757 16.7668C65.5971 17 65.0873 17 64.0678 17H51.9322C50.9127 17 50.4029 17 50.1243 16.7668C49.939 16.6117 49.8161 16.3946 49.7784 16.1559C49.7218 15.797 49.9841 15.3599 50.5086 14.4856L51.0867 13.5222C51.1016 13.4973 51.1091 13.4849 51.1164 13.4725C51.6949 12.5005 52.0606 11.4169 52.1896 10.2933C52.1912 10.279 52.1928 10.2645 52.196 10.2356L52.4478 7.96942Z" stroke="#FFCB74" stroke-width="2"/>
<path d="M54 17C54 17.5253 54.1035 18.0454 54.3045 18.5307C54.5055 19.016 54.8001 19.457 55.1716 19.8284C55.543 20.1999 55.984 20.4945 56.4693 20.6955C56.9546 20.8965 57.4747 21 58 21C58.5253 21 59.0454 20.8965 59.5307 20.6955C60.016 20.4945 60.457 20.1999 60.8284 19.8284C61.1999 19.457 61.4945 19.016 61.6955 18.5307C61.8965 18.0454 62 17.5253 62 17" stroke="#FFCB74" stroke-width="2" stroke-linecap="round"/>
<circle cx="11" cy="12" r="7" stroke="#FFCB74" stroke-width="2"/>
<path d="M11 9C10.606 9 10.2159 9.0776 9.85195 9.22836C9.48797 9.37913 9.15726 9.6001 8.87868 9.87868C8.6001 10.1573 8.37913 10.488 8.22836 10.852C8.0776 11.2159 8 11.606 8 12" stroke="#FFCB74" stroke-width="2" stroke-linecap="round"/>
<path d="M20 21L17 18" stroke="#FFCB74" stroke-width="2" stroke-linecap="round"/>
</svg>
