<svg width="31" height="30" viewBox="0 0 31 30" fill="none" xmlns="http://www.w3.org/2000/svg">
<path d="M26.3025 20.3469V6.73225C26.3025 6.41588 25.9847 6.19828 25.6897 6.31273L20.1716 8.45388C20.0859 8.48713 19.9921 8.49334 19.9028 8.47167L10.1572 6.10823C10.0679 6.08656 9.97407 6.09278 9.88838 6.12603L4.04472 8.39351C3.87159 8.46068 3.75751 8.62732 3.75751 8.81303V22.4277C3.75751 22.744 4.07535 22.9616 4.37029 22.8472L9.88838 20.706C9.97407 20.6728 10.0679 20.6666 10.1572 20.6882L19.9028 23.0517C19.9921 23.0733 20.0859 23.0671 20.1716 23.0339L26.0153 20.7664C26.1884 20.6992 26.3025 20.5326 26.3025 20.3469Z" stroke="#FFCB74" stroke-width="2" stroke-linejoin="round"/>
<path d="M20.04 23.0849V8.50488" stroke="#FFCB74" stroke-width="2"/>
<path d="M10.02 20.655L10.02 6.07495" stroke="#FFCB74" stroke-width="2"/>
</svg>
