<svg width="31" height="30" viewBox="0 0 31 30" fill="none" xmlns="http://www.w3.org/2000/svg">
<path d="M18.7874 24.3001H6.95745C5.83734 24.3001 5.27729 24.3001 4.84947 24.0821C4.47314 23.8904 4.16718 23.5844 3.97543 23.2081C3.75745 22.7803 3.75745 22.2202 3.75745 21.1001V8.06011C3.75745 6.94 3.75745 6.37995 3.97543 5.95213C4.16718 5.5758 4.47314 5.26984 4.84947 5.07809C5.27729 4.86011 5.83734 4.86011 6.95745 4.86011H9.97536C10.4544 4.86011 10.6939 4.86011 10.9198 4.91326C11.1201 4.96039 11.312 5.03815 11.4886 5.14381C11.6877 5.26296 11.8596 5.42972 12.2035 5.76324L12.8464 6.38697C13.1902 6.72049 13.3622 6.88725 13.5613 7.00641C13.7379 7.11206 13.9298 7.18983 14.1301 7.23696C14.356 7.29011 14.5955 7.29011 15.0745 7.29011H18.0924C19.2126 7.29011 19.7726 7.29011 20.2004 7.50809C20.5768 7.69984 20.8827 8.0058 21.0745 8.38213C21.2924 8.80995 21.2924 9.37 21.2924 10.4901V11.5426" stroke="#FFCB74" stroke-width="2" stroke-linecap="round"/>
<path d="M6.81769 14.4044C7.06802 13.595 7.19319 13.1903 7.43623 12.8905C7.6508 12.6258 7.92943 12.4203 8.24569 12.2935C8.60393 12.1499 9.02756 12.1499 9.87482 12.1499H21.9632C23.4323 12.1499 24.1669 12.1499 24.6549 12.4567C25.0822 12.7253 25.3922 13.1456 25.5226 13.6333C25.6715 14.1901 25.4544 14.8919 25.0204 16.2954L23.2422 22.0449C22.9919 22.8543 22.8667 23.2591 22.6237 23.5589C22.4091 23.8236 22.1305 24.029 21.8142 24.1558C21.456 24.2994 21.0323 24.2994 20.1851 24.2994H5.92706C5.19251 24.2994 4.82523 24.2994 4.58123 24.146C4.36756 24.0117 4.21259 23.8016 4.14739 23.5577C4.07294 23.2793 4.18146 22.9284 4.39849 22.2267L6.81769 14.4044Z" stroke="#FFCB74" stroke-width="2"/>
<path d="M11.2725 18.2251L18.7875 18.2251" stroke="#FFCB74" stroke-width="2" stroke-linecap="round"/>
</svg>
