<svg width="31" height="29" viewBox="0 0 31 29" fill="none" xmlns="http://www.w3.org/2000/svg">
<path d="M26.4585 20.2333V6.69822C26.4585 6.38207 26.1411 6.16448 25.8462 6.2785L20.3397 8.40767C20.2543 8.44071 20.1608 8.44688 20.0717 8.42536L10.3453 6.0748C10.2562 6.05328 10.1627 6.05945 10.0773 6.09249L4.24621 8.34717C4.07281 8.41421 3.9585 8.58098 3.9585 8.76688V22.3019C3.9585 22.6181 4.27592 22.8357 4.57079 22.7217L10.0773 20.5925C10.1627 20.5595 10.2562 20.5533 10.3453 20.5748L20.0717 22.9254C20.1608 22.9469 20.2543 22.9407 20.3397 22.9077L26.1708 20.653C26.3442 20.586 26.4585 20.4192 26.4585 20.2333Z" stroke="#FFCB74" stroke-width="2" stroke-linejoin="round"/>
<path d="M20.2085 22.9583V8.45825" stroke="#FFCB74" stroke-width="2"/>
<path d="M10.2085 20.5417L10.2085 6.04175" stroke="#FFCB74" stroke-width="2"/>
</svg>
