<svg width="33" height="29" viewBox="0 0 33 29" fill="none" xmlns="http://www.w3.org/2000/svg">
<path d="M4.125 14.4999V8.03325C4.125 6.91315 4.125 6.35309 4.34299 5.92527C4.53473 5.54895 4.84069 5.24299 5.21702 5.05124C5.64484 4.83325 6.2049 4.83325 7.325 4.83325H11.1687C11.6151 4.83325 11.8382 4.83325 12.0503 4.87985C12.2384 4.92118 12.4196 4.98947 12.5881 5.08259C12.7782 5.18759 12.9458 5.3349 13.2811 5.62952L14.2189 6.45365C14.5542 6.74827 14.7218 6.89558 14.9119 7.00058C15.0804 7.0937 15.2616 7.16199 15.4497 7.20332C15.6618 7.24992 15.8849 7.24992 16.3313 7.24992H18.8C19.9201 7.24992 20.4802 7.24992 20.908 7.46791C21.2843 7.65965 21.5903 7.96561 21.782 8.34194C22 8.76976 22 9.32981 22 10.4499V11.4791" stroke="#FFCB74" stroke-width="2" stroke-linecap="round"/>
<path d="M6.4625 24.1666L22.4612 24.1662C23.2847 24.1661 23.6964 24.1661 24.0474 24.0289C24.3575 23.9078 24.6323 23.7112 24.8472 23.4569C25.0904 23.169 25.2234 22.7793 25.4895 22L27.4296 16.3171C27.9171 14.889 28.1609 14.175 28.0211 13.606C27.8987 13.108 27.5898 12.6761 27.158 12.3994C26.6648 12.0833 25.9102 12.0833 24.4012 12.0833H14.6639C13.8404 12.0833 13.4286 12.0833 13.0776 12.2204C12.7676 12.3416 12.4927 12.5382 12.2778 12.7925C12.0346 13.0804 11.9016 13.4701 11.6355 14.2494L8.80575 22.5382C8.71627 22.8003 8.67153 22.9314 8.61625 23.0444C8.3202 23.6501 7.73897 24.0658 7.07017 24.1503C6.9453 24.1661 6.80682 24.1661 6.52986 24.1661V24.1661C6.15374 24.1661 5.96568 24.1661 5.80836 24.1409C4.95561 24.0041 4.28696 23.3355 4.15022 22.4827C4.125 22.3254 4.125 22.1374 4.125 21.7612V13.2916" stroke="#FFCB74" stroke-width="2" stroke-linecap="round"/>
<path d="M15.125 18.125L22 18.125" stroke="#FFCB74" stroke-width="2" stroke-linecap="round"/>
</svg>
