<svg width="31" height="30" viewBox="0 0 31 30" fill="none" xmlns="http://www.w3.org/2000/svg">
<path d="M5.75753 20.655H12.6C13.9421 20.655 15.03 21.7429 15.03 23.085V10.86C15.03 8.03156 15.03 6.61734 14.1513 5.73866C13.2727 4.85999 11.8585 4.85999 9.03003 4.85999H5.75753C4.81472 4.85999 4.34332 4.85999 4.05042 5.15288C3.75753 5.44577 3.75753 5.91718 3.75753 6.85998V18.655C3.75753 19.5978 3.75753 20.0692 4.05042 20.3621C4.34332 20.655 4.81472 20.655 5.75753 20.655Z" fill="#FFCB74"/>
<path d="M24.3025 20.655H17.46C16.118 20.655 15.03 21.7429 15.03 23.085V10.86C15.03 8.03156 15.03 6.61734 15.9087 5.73866C16.7874 4.85999 18.2016 4.85999 21.03 4.85999H24.3025C25.2453 4.85999 25.7167 4.85999 26.0096 5.15288C26.3025 5.44577 26.3025 5.91718 26.3025 6.85998V18.655C26.3025 19.5978 26.3025 20.0692 26.0096 20.3621C25.7167 20.655 25.2453 20.655 24.3025 20.655Z" fill="#FFCB74"/>
</svg>
