<svg width="31" height="29" viewBox="0 0 31 29" fill="none" xmlns="http://www.w3.org/2000/svg">
<path d="M5.9585 20.5416H11.5835C12.1642 20.5416 12.4545 20.5416 12.6972 20.5817C13.9652 20.791 14.9591 21.7848 15.1684 23.0529C15.2085 23.2956 15.2085 23.5859 15.2085 24.1666V10.8333C15.2085 8.00483 15.2085 6.59061 14.3298 5.71193C13.4511 4.83325 12.0369 4.83325 9.2085 4.83325H5.9585C5.01569 4.83325 4.54428 4.83325 4.25139 5.12615C3.9585 5.41904 3.9585 5.89044 3.9585 6.83325V18.5416C3.9585 19.4844 3.9585 19.9558 4.25139 20.2487C4.54428 20.5416 5.01569 20.5416 5.9585 20.5416Z" stroke="#FFCB74" stroke-width="2"/>
<path d="M24.4585 20.5416H18.8335C18.2528 20.5416 17.9625 20.5416 17.7198 20.5817C16.4518 20.791 15.4579 21.7848 15.2486 23.0529C15.2085 23.2956 15.2085 23.5859 15.2085 24.1666V10.8333C15.2085 8.00483 15.2085 6.59061 16.0872 5.71193C16.9659 4.83325 18.3801 4.83325 21.2085 4.83325H24.4585C25.4013 4.83325 25.8727 4.83325 26.1656 5.12615C26.4585 5.41904 26.4585 5.89044 26.4585 6.83325V18.5416C26.4585 19.4844 26.4585 19.9558 26.1656 20.2487C25.8727 20.5416 25.4013 20.5416 24.4585 20.5416Z" stroke="#FFCB74" stroke-width="2"/>
</svg>
