<svg width="31" height="30" viewBox="0 0 31 30" fill="none" xmlns="http://www.w3.org/2000/svg">
<path fill-rule="evenodd" clip-rule="evenodd" d="M9.02007 6.70867C9.02007 6.00563 8.31375 5.52207 7.65832 5.7764L4.39582 7.04232C4.01108 7.19161 3.75757 7.56191 3.75757 7.9746V22.8393C3.75757 23.5424 4.46388 24.0259 5.11931 23.7716L8.38181 22.5057C8.76655 22.3564 9.02007 21.9861 9.02007 21.5734V6.70867ZM11.0201 21.326C11.0201 21.7875 11.3359 22.1891 11.7844 22.2979L17.8044 23.7578C18.4338 23.9104 19.0401 23.4336 19.0401 22.786V7.83394C19.0401 7.37244 18.7243 6.97088 18.2758 6.86211L12.2558 5.40217C11.6263 5.24953 11.0201 5.72634 11.0201 6.374V21.326ZM21.6783 6.6543C21.2936 6.80359 21.0401 7.17389 21.0401 7.58658V22.4513C21.0401 23.1543 21.7464 23.6379 22.4018 23.3836L25.6643 22.1176C26.0491 21.9684 26.3026 21.5981 26.3026 21.1854V6.32065C26.3026 5.61761 25.5963 5.13405 24.9408 5.38837L21.6783 6.6543Z" fill="#FFCB74"/>
</svg>
