<svg width="31" height="29" viewBox="0 0 31 29" fill="none" xmlns="http://www.w3.org/2000/svg">
<path d="M6.4585 15.4178C6.4585 13.7772 6.4585 12.9569 6.80157 12.2358C7.14465 11.5147 7.78895 10.9809 9.07756 9.91318L10.3276 8.87746C12.6567 6.9476 13.8213 5.98267 15.2085 5.98267C16.5957 5.98267 17.7603 6.9476 20.0894 8.87746L21.3394 9.91318C22.628 10.9809 23.2723 11.5147 23.6154 12.2358C23.9585 12.9569 23.9585 13.7772 23.9585 15.4178V20.5416C23.9585 22.82 23.9585 23.9593 23.2263 24.6671C22.494 25.3749 21.3155 25.3749 18.9585 25.3749H11.4585C9.10147 25.3749 7.92296 25.3749 7.19073 24.6671C6.4585 23.9593 6.4585 22.82 6.4585 20.5416V15.4178Z" stroke="#FFCB74" stroke-width="2"/>
<path d="M18.3335 25.375V19.125C18.3335 18.5727 17.8858 18.125 17.3335 18.125H13.0835C12.5312 18.125 12.0835 18.5727 12.0835 19.125V25.375" stroke="#FFCB74" stroke-width="2" stroke-linecap="round" stroke-linejoin="round"/>
</svg>
