<svg width="34" height="30" viewBox="0 0 34 30" fill="none" xmlns="http://www.w3.org/2000/svg">
<path d="M4.12817 14.5778V8.05925C4.12817 6.93915 4.12817 6.3791 4.34616 5.95127C4.53791 5.57495 4.84387 5.26899 5.22019 5.07724C5.64802 4.85925 6.20807 4.85925 7.32817 4.85925H11.1743C11.6221 4.85925 11.846 4.85925 12.0588 4.90614C12.2474 4.94773 12.4291 5.01644 12.598 5.11013C12.7885 5.21575 12.9564 5.36394 13.2921 5.66031L14.2295 6.48783C14.5652 6.7842 14.7331 6.93238 14.9236 7.03801C15.0925 7.13169 15.2742 7.2004 15.4629 7.24199C15.6756 7.28888 15.8995 7.28888 16.3473 7.28888H18.8173C19.9375 7.28888 20.4975 7.28888 20.9253 7.50687C21.3017 7.69862 21.6076 8.00458 21.7994 8.3809C22.0173 8.80872 22.0173 9.36878 22.0173 10.4889V11.5407" stroke="#FFCB74" stroke-width="2" stroke-linecap="round"/>
<path d="M6.46753 24.2963L22.4773 24.2959C23.3019 24.2959 23.7143 24.2959 24.0656 24.1584C24.376 24.037 24.651 23.8399 24.8658 23.5852C25.1091 23.2967 25.2417 22.9063 25.5071 22.1256L27.4604 16.3778C27.9453 14.9509 28.1878 14.2374 28.0475 13.6691C27.9248 13.1716 27.6158 12.7402 27.1842 12.4639C26.6912 12.1482 25.9377 12.1482 24.4306 12.1482H14.677C13.8523 12.1482 13.44 12.1482 13.0886 12.2857C12.7783 12.4071 12.5032 12.6042 12.2884 12.8589C12.0452 13.1474 11.9125 13.5378 11.6471 14.3185L8.81084 22.6645C8.72151 22.9274 8.67684 23.0588 8.62157 23.1722C8.32593 23.7787 7.74442 24.1952 7.07505 24.28C6.94992 24.2959 6.8111 24.2959 6.53347 24.2959V24.2959C6.15694 24.2959 5.96868 24.2959 5.8112 24.2706C4.95872 24.1337 4.29029 23.4653 4.15345 22.6128C4.12817 22.4554 4.12817 22.2671 4.12817 21.8906V13.363" stroke="#FFCB74" stroke-width="2" stroke-linecap="round"/>
<path d="M15.137 18.2222L22.0174 18.2222" stroke="#FFCB74" stroke-width="2" stroke-linecap="round"/>
</svg>
