<svg width="31" height="30" viewBox="0 0 31 30" fill="none" xmlns="http://www.w3.org/2000/svg">
<path d="M5.75753 20.6551H11.385C11.9843 20.6551 12.2839 20.6551 12.5342 20.6978C13.7898 20.9118 14.7733 21.8954 14.9874 23.1509C15.03 23.4012 15.03 23.7008 15.03 24.3001V10.8601C15.03 8.03168 15.03 6.61747 14.1513 5.73879C13.2727 4.86011 11.8585 4.86011 9.03003 4.86011H5.75753C4.81472 4.86011 4.34332 4.86011 4.05042 5.153C3.75753 5.44589 3.75753 5.9173 3.75753 6.86011V18.6551C3.75753 19.5979 3.75753 20.0693 4.05042 20.3622C4.34332 20.6551 4.81472 20.6551 5.75753 20.6551Z" stroke="#FFCB74" stroke-width="2"/>
<path d="M24.3025 20.6551H18.675C18.0758 20.6551 17.7761 20.6551 17.5259 20.6978C16.2703 20.9118 15.2868 21.8954 15.0727 23.1509C15.03 23.4012 15.03 23.7008 15.03 24.3001V10.8601C15.03 8.03168 15.03 6.61747 15.9087 5.73879C16.7874 4.86011 18.2016 4.86011 21.03 4.86011H24.3025C25.2453 4.86011 25.7167 4.86011 26.0096 5.153C26.3025 5.44589 26.3025 5.9173 26.3025 6.86011V18.6551C26.3025 19.5979 26.3025 20.0693 26.0096 20.3622C25.7167 20.6551 25.2453 20.6551 24.3025 20.6551Z" stroke="#FFCB74" stroke-width="2"/>
</svg>
