<svg width="31" height="30" viewBox="0 0 31 30" fill="none" xmlns="http://www.w3.org/2000/svg">
<path d="M6.26251 15.503C6.26251 13.8534 6.26251 13.0285 6.60627 12.3035C6.95004 11.5785 7.59563 11.0417 8.88681 9.96807L10.1393 8.92664C12.4731 6.98613 13.64 6.01587 15.03 6.01587C16.42 6.01587 17.5869 6.98612 19.9207 8.92664L21.1732 9.96807C22.4644 11.0417 23.11 11.5785 23.4537 12.3035C23.7975 13.0285 23.7975 13.8534 23.7975 15.503V20.6551C23.7975 22.9461 23.7975 24.0917 23.0638 24.8034C22.3301 25.5151 21.1492 25.5151 18.7875 25.5151H11.2725C8.91078 25.5151 7.72991 25.5151 6.99621 24.8034C6.26251 24.0917 6.26251 22.9461 6.26251 20.6551V15.503Z" stroke="#FFCB74" stroke-width="2"/>
<path d="M18.1612 25.5151V19.2251C18.1612 18.6728 17.7135 18.2251 17.1612 18.2251H12.8987C12.3465 18.2251 11.8987 18.6728 11.8987 19.2251V25.5151" stroke="#FFCB74" stroke-width="2" stroke-linecap="round" stroke-linejoin="round"/>
</svg>
