<svg width="27" height="15" viewBox="0 0 27 15" fill="none" xmlns="http://www.w3.org/2000/svg">
<path d="M3.46765 13.2963L19.4775 13.2959C20.3021 13.2959 20.7144 13.2959 21.0658 13.1584C21.3761 13.037 21.6511 12.8399 21.866 12.5852C22.1092 12.2967 22.2419 11.9063 22.5072 11.1256L24.4605 5.37785C24.9454 3.95091 25.1879 3.23743 25.0477 2.66906C24.9249 2.17157 24.6159 1.74017 24.1844 1.46387C23.6913 1.14819 22.9378 1.14819 21.4307 1.14819H11.6771C10.8525 1.14819 10.4401 1.14819 10.0887 1.28569C9.77842 1.40711 9.50335 1.60415 9.28853 1.85891C9.04527 2.14738 8.9126 2.53777 8.64727 3.31854L5.81097 11.6645C5.72163 11.9274 5.67696 12.0588 5.6217 12.1722C5.32606 12.7787 4.74455 13.1952 4.07518 13.28C3.95004 13.2959 3.81123 13.2959 3.53359 13.2959V13.2959C3.15706 13.2959 2.9688 13.2959 2.81132 13.2706C1.95884 13.1337 1.29041 12.4653 1.15357 11.6128C1.1283 11.4554 1.1283 11.2671 1.1283 10.8906V2.36301" stroke="#FFCB74" stroke-width="2" stroke-linecap="round"/>
</svg>
