<svg width="21" height="23" viewBox="0 0 21 23" fill="none" xmlns="http://www.w3.org/2000/svg">
<path d="M16.7874 21.3001H4.95745C3.83734 21.3001 3.27729 21.3001 2.84947 21.0821C2.47314 20.8904 2.16718 20.5844 1.97543 20.2081C1.75745 19.7803 1.75745 19.2202 1.75745 18.1001V5.06011C1.75745 3.94 1.75745 3.37995 1.97543 2.95213C2.16718 2.5758 2.47314 2.26984 2.84947 2.07809C3.27729 1.86011 3.83734 1.86011 4.95745 1.86011H7.97536C8.45436 1.86011 8.69386 1.86011 8.91979 1.91326C9.12011 1.96039 9.31196 2.03815 9.48857 2.14381C9.68774 2.26296 9.85964 2.42972 10.2035 2.76324L10.8464 3.38697C11.1902 3.72049 11.3622 3.88725 11.5613 4.00641C11.7379 4.11206 11.9298 4.18983 12.1301 4.23696C12.356 4.29011 12.5955 4.29011 13.0745 4.29011H16.0924C17.2126 4.29011 17.7726 4.29011 18.2004 4.50809C18.5768 4.69984 18.8827 5.0058 19.0745 5.38213C19.2924 5.80995 19.2924 6.37 19.2924 7.49011V8.54261" stroke="#FFCB74" stroke-width="2" stroke-linecap="round"/>
</svg>
