<svg width="24" height="15" viewBox="0 0 24 15" fill="none" xmlns="http://www.w3.org/2000/svg">
<path d="M3.81769 3.40442C4.06802 2.59498 4.19319 2.19026 4.43623 1.89045C4.6508 1.62577 4.92943 1.42029 5.24569 1.29351C5.60393 1.1499 6.02756 1.1499 6.87482 1.1499H18.9632C20.4323 1.1499 21.1669 1.1499 21.6549 1.45669C22.0822 1.72534 22.3922 2.14563 22.5226 2.63327C22.6715 3.19013 22.4544 3.89189 22.0204 5.29539L20.2422 11.0449C19.9919 11.8543 19.8667 12.2591 19.6237 12.5589C19.4091 12.8236 19.1305 13.029 18.8142 13.1558C18.456 13.2994 18.0323 13.2994 17.1851 13.2994H2.92706C2.19251 13.2994 1.82523 13.2994 1.58123 13.146C1.36756 13.0117 1.21259 12.8016 1.14739 12.5577C1.07294 12.2793 1.18146 11.9284 1.39849 11.2267L3.81769 3.40442Z" stroke="#FFCB74" stroke-width="2"/>
</svg>
