<svg width="21" height="13" viewBox="0 0 21 13" fill="none" xmlns="http://www.w3.org/2000/svg">
<path d="M1.1283 11.5779V5.05938C1.1283 3.93927 1.1283 3.37922 1.34628 2.95139C1.53803 2.57507 1.84399 2.26911 2.22031 2.07736C2.64814 1.85938 3.20819 1.85938 4.3283 1.85938H8.17444C8.62226 1.85938 8.84617 1.85938 9.05888 1.90627C9.24755 1.94786 9.4292 2.01656 9.59816 2.11025C9.78867 2.21587 9.95652 2.36406 10.2922 2.66043L11.2296 3.48795C11.5653 3.78432 11.7332 3.93251 11.9237 4.03813C12.0927 4.13182 12.2743 4.20052 12.463 4.24211C12.6757 4.289 12.8996 4.289 13.3474 4.289H15.8175C16.9376 4.289 17.4976 4.289 17.9255 4.50699C18.3018 4.69874 18.6077 5.0047 18.7995 5.38102C19.0175 5.80885 19.0175 6.3689 19.0175 7.489V8.54086" stroke="#FFCB74" stroke-width="2" stroke-linecap="round"/>
</svg>
