<svg width="20" height="22" viewBox="0 0 20 22" fill="none" xmlns="http://www.w3.org/2000/svg">
<path d="M1.26251 10.503C1.26251 8.85337 1.26251 8.02853 1.60627 7.3035C1.95004 6.57846 2.59563 6.04166 3.88681 4.96807L5.13931 3.92664C7.47312 1.98613 8.64002 1.01587 10.03 1.01587C11.42 1.01587 12.5869 1.98612 14.9207 3.92664L16.1732 4.96807C17.4644 6.04166 18.11 6.57846 18.4537 7.3035C18.7975 8.02853 18.7975 8.85337 18.7975 10.503V15.6551C18.7975 17.9461 18.7975 19.0917 18.0638 19.8034C17.3301 20.5151 16.1492 20.5151 13.7875 20.5151H6.27251C3.91078 20.5151 2.72991 20.5151 1.99621 19.8034C1.26251 19.0917 1.26251 17.9461 1.26251 15.6551V10.503Z" stroke="#FFCB74" stroke-width="2"/>
</svg>
