<svg width="17" height="19" viewBox="0 0 17 19" fill="none" xmlns="http://www.w3.org/2000/svg">
<path fill-rule="evenodd" clip-rule="evenodd" d="M13.4584 10.3504V10.8005C13.4584 13.8167 13.4584 15.3247 12.5514 16.208C12.4522 16.3045 12.3465 16.3941 12.235 16.476C11.2149 17.2258 9.72728 16.9783 6.75204 16.4834C5.28539 16.2394 4.55207 16.1174 4.09063 15.6309C4.03921 15.5767 3.99087 15.5197 3.94584 15.46C3.54169 14.925 3.54169 14.1816 3.54169 12.6948V6.00592C3.54169 4.51911 3.54169 3.77571 3.94584 3.2407C3.99087 3.18108 4.03921 3.12403 4.09063 3.06983C4.55207 2.58336 5.28539 2.46136 6.75204 2.21737C9.72728 1.72241 11.2149 1.47493 12.235 2.2247C12.3465 2.30665 12.4522 2.39621 12.5513 2.49275C13.4584 3.376 13.4584 4.88407 13.4584 7.90019V8.35037H9.80078L11.4228 6.20387L9.8272 4.99808L6.99387 8.74747L6.53827 9.35037L6.99387 9.95326L9.8272 13.7027L11.4228 12.4969L9.80078 10.3504H13.4584Z" fill="#FFCB74"/>
</svg>
