<svg width="17" height="18" viewBox="0 0 17 18" fill="none" xmlns="http://www.w3.org/2000/svg">
<path fill-rule="evenodd" clip-rule="evenodd" d="M13.4584 10.3047V10.3478C13.4584 13.3505 13.4584 14.8518 12.5541 15.7347C12.4597 15.8269 12.3593 15.9127 12.2536 15.9917C11.2411 16.7479 9.75794 16.5148 6.79167 16.0487C5.30504 15.8151 4.56172 15.6983 4.09409 15.2078C4.04436 15.1556 3.99748 15.1008 3.95367 15.0436C3.54169 14.5055 3.54169 13.753 3.54169 12.2481V6.3612C3.54169 4.85632 3.54169 4.10389 3.95367 3.56578C3.99748 3.50855 4.04436 3.45373 4.09409 3.40157C4.56172 2.91104 5.30504 2.79424 6.79167 2.56062C9.75794 2.0945 11.2411 1.86143 12.2536 2.61767C12.3593 2.69663 12.4597 2.78248 12.5541 2.87466C13.4584 3.75749 13.4584 5.25883 13.4584 8.26149V8.30467H9.87231L11.4059 6.3877L9.84415 5.13831L7.01082 8.67997L6.51106 9.30467L7.01082 9.92936L9.84415 13.471L11.4059 12.2216L9.87231 10.3047H13.4584Z" fill="#FFCB74"/>
</svg>
