<svg width="17" height="17" viewBox="0 0 17 17" fill="none" xmlns="http://www.w3.org/2000/svg">
<path fill-rule="evenodd" clip-rule="evenodd" d="M13.4584 9.49974V9.54292C13.4584 12.5456 13.4584 14.0469 12.5541 14.9298C12.4597 15.0219 12.3593 15.1078 12.2536 15.1867C11.2411 15.943 9.75794 15.7099 6.79167 15.2438C5.30504 15.0102 4.56172 14.8934 4.09409 14.4028C4.04436 14.3507 3.99748 14.2959 3.95367 14.2386C3.54169 13.7005 3.54169 12.9481 3.54169 11.4432V5.55627C3.54169 4.05139 3.54169 3.29895 3.95367 2.76085C3.99748 2.70362 4.04436 2.6488 4.09409 2.59664C4.56172 2.10611 5.30504 1.98931 6.79167 1.75569C9.75794 1.28956 11.2411 1.0565 12.2536 1.81274C12.3593 1.8917 12.4597 1.97755 12.5541 2.06972C13.4584 2.95256 13.4584 4.45389 13.4584 7.45656V7.49974H9.87231L11.4059 5.58277L9.84415 4.33338L7.01082 7.87504L6.51106 8.49974L7.01082 9.12443L9.84415 12.6661L11.4059 11.4167L9.87231 9.49974H13.4584Z" fill="#FFCB74"/>
</svg>
