<svg width="18" height="20" viewBox="0 0 18 20" fill="none" xmlns="http://www.w3.org/2000/svg">
<path fill-rule="evenodd" clip-rule="evenodd" d="M0.606214 6.30325C0.262451 7.02829 0.262451 7.85313 0.262451 9.5028V14.6549C0.262451 16.9459 0.262451 18.0914 0.996149 18.8031C1.69008 19.4763 2.78401 19.5128 4.8987 19.5148V13.44C4.8987 12.1882 5.93605 11.225 7.1512 11.225H10.9087C12.1239 11.225 13.1612 12.1882 13.1612 13.44V19.5148C15.2759 19.5128 16.3698 19.4763 17.0638 18.8031C17.7974 18.0914 17.7975 16.9459 17.7975 14.6549V9.5028C17.7975 7.85313 17.7974 7.02829 17.4537 6.30325C17.1099 5.57821 16.4643 5.04142 15.1731 3.96782L13.9206 2.92639C11.5868 0.985881 10.4199 0.015625 9.02995 0.015625C7.63996 0.015625 6.47306 0.985881 4.13925 2.92639L2.88675 3.96782C1.59557 5.04142 0.949977 5.57821 0.606214 6.30325ZM11.1612 19.5149V13.44C11.1612 13.3496 11.077 13.225 10.9087 13.225H7.1512C6.98288 13.225 6.8987 13.3496 6.8987 13.44V19.5149H11.1612Z" fill="#FFCB74"/>
</svg>
