<svg width="34" height="41" viewBox="0 0 34 41" fill="none" xmlns="http://www.w3.org/2000/svg">
<g filter="url(#filter0_d_147_2810)">
<g filter="url(#filter1_dd_147_2810)">
<path d="M18.1961 20.142C17.698 21.0048 16.9985 21.6194 16.2911 21.9283C15.5836 22.2373 14.9036 22.23 14.3761 21.9255C13.8487 21.621 13.5023 21.0357 13.4162 20.2685C13.33 19.5014 13.5126 18.5883 14.0107 17.7255C14.5088 16.8628 15.2083 16.2481 15.9157 15.9392C16.6232 15.6302 17.3032 15.6375 17.8307 15.942C18.3581 16.2466 18.7045 16.8318 18.7906 17.599C18.8768 18.3661 18.6943 19.2792 18.1961 20.142Z" stroke="#FFCB74" shape-rendering="crispEdges"/>
</g>
<g filter="url(#filter2_dd_147_2810)">
<path d="M20.1129 21.0852C19.2045 22.6585 17.9212 23.7938 16.6015 24.3701C15.2817 24.9465 13.961 24.9533 12.9095 24.3462C11.858 23.7391 11.2036 22.592 11.0428 21.1608C10.8821 19.7298 11.2236 18.0507 12.132 16.4774C13.0403 14.9041 14.3237 13.7688 15.6433 13.1925C16.9631 12.6161 18.2838 12.6093 19.3353 13.2164C20.3868 13.8235 21.0413 14.9706 21.2021 16.4018C21.3628 17.8328 21.0212 19.5119 20.1129 21.0852Z" stroke="#FFCB74" shape-rendering="crispEdges"/>
</g>
<g filter="url(#filter3_dd_147_2810)">
<path d="M19.1812 20.6336C18.4729 21.8604 17.4743 22.7418 16.4533 23.1877C15.4321 23.6337 14.4238 23.6336 13.6279 23.1741C12.832 22.7145 12.3278 21.8414 12.2034 20.734C12.079 19.6269 12.343 18.3213 13.0513 17.0946C13.7596 15.8678 14.7582 14.9864 15.7793 14.5405C16.8005 14.0945 17.8087 14.0946 18.6046 14.5541C19.4006 15.0136 19.9048 15.8867 20.0291 16.9941C20.1535 18.1013 19.8895 19.4068 19.1812 20.6336Z" stroke="#FFCB74" shape-rendering="crispEdges"/>
</g>
<g filter="url(#filter4_dd_147_2810)">
<path d="M21.2268 21.5394C20.1059 23.4808 18.5202 24.8859 16.8834 25.6006C15.2465 26.3155 13.5939 26.3296 12.2709 25.5658C10.948 24.802 10.1339 23.3638 9.93452 21.5887C9.73516 19.8138 10.1591 17.738 11.2799 15.7966C12.4008 13.8552 13.9865 12.4502 15.6233 11.7354C17.2603 11.0205 18.9129 11.0065 20.2358 11.7703C21.5587 12.5341 22.3728 13.9723 22.5722 15.7474C22.7716 17.5222 22.3477 19.5981 21.2268 21.5394Z" stroke="#FFCB74" shape-rendering="crispEdges"/>
</g>
<g filter="url(#filter5_dd_147_2810)">
<path d="M22.1681 22.0652C20.8348 24.3747 18.9466 26.0494 16.9927 26.9027C15.0386 27.7561 13.0541 27.7775 11.4597 26.8569C9.86535 25.9364 8.89164 24.2071 8.65363 22.0881C8.41564 19.9693 8.9219 17.4968 10.2553 15.1873C11.5886 12.8779 13.4768 11.2032 15.4307 10.3499C17.3848 9.49652 19.3693 9.47513 20.9637 10.3956C22.5581 11.3162 23.5318 13.0455 23.7698 15.1645C24.0078 17.2832 23.5015 19.7558 22.1681 22.0652Z" stroke="#FFCB74" shape-rendering="crispEdges"/>
</g>
<g filter="url(#filter6_dd_147_2810)">
<path d="M23.1837 22.4631C21.6378 25.1406 19.4472 27.085 17.1762 28.0768C14.9049 29.0687 12.5886 29.0974 10.7228 28.0201C8.85692 26.9429 7.7236 24.9225 7.44696 22.4596C7.17034 19.997 7.75896 17.1277 9.30482 14.4501C10.8507 11.7726 13.0413 9.82822 15.3123 8.83644C17.5836 7.84456 19.8999 7.81587 21.7658 8.89311C23.6316 9.97035 24.7649 11.9907 25.0415 14.4536C25.3182 16.9163 24.7295 19.7856 23.1837 22.4631Z" stroke="#FFCB74" shape-rendering="crispEdges"/>
</g>
<g filter="url(#filter7_dd_147_2810)">
<path d="M24.1852 22.985C22.4377 26.0117 19.9603 28.212 17.3883 29.3352C14.8162 30.4584 12.185 30.494 10.0617 29.2681C7.93833 28.0422 6.65358 25.7457 6.3403 22.9566C6.02703 20.1676 6.69378 16.922 8.44124 13.8953C10.1887 10.8686 12.6662 8.66832 15.2381 7.54515C17.8102 6.42188 20.4414 6.38626 22.5647 7.61217C24.6881 8.83809 25.9728 11.1346 26.2861 13.9237C26.5994 16.7127 25.9326 19.9583 24.1852 22.985Z" stroke="#FFCB74" shape-rendering="crispEdges"/>
</g>
<g filter="url(#filter8_dd_147_2810)">
<path d="M25.3391 23.5968C23.385 26.9815 20.6134 29.4441 17.733 30.7019C14.8524 31.9599 11.8984 32.0026 9.51106 30.6243C7.1237 29.246 5.68371 26.6664 5.33285 23.5427C4.98202 20.4193 5.72887 16.7877 7.68301 13.4031C9.63715 10.0184 12.4087 7.55583 15.2891 6.29795C18.1697 5.03998 21.1237 4.99725 23.5111 6.37559C25.8984 7.75393 27.3384 10.3335 27.6893 13.4572C28.0401 16.5806 27.2932 20.2121 25.3391 23.5968Z" stroke="#FFCB74" shape-rendering="crispEdges"/>
</g>
</g>
<defs>
<filter id="filter0_d_147_2810" x="0.749268" y="4.84814" width="31.5237" height="35.3037" filterUnits="userSpaceOnUse" color-interpolation-filters="sRGB">
<feFlood flood-opacity="0" result="BackgroundImageFix"/>
<feColorMatrix in="SourceAlpha" type="matrix" values="0 0 0 0 0 0 0 0 0 0 0 0 0 0 0 0 0 0 127 0" result="hardAlpha"/>
<feOffset dy="4"/>
<feGaussianBlur stdDeviation="2"/>
<feComposite in2="hardAlpha" operator="out"/>
<feColorMatrix type="matrix" values="0 0 0 0 0 0 0 0 0 0 0 0 0 0 0 0 0 0 0.25 0"/>
<feBlend mode="normal" in2="BackgroundImageFix" result="effect1_dropShadow_147_2810"/>
<feBlend mode="normal" in="SourceGraphic" in2="effect1_dropShadow_147_2810" result="shape"/>
</filter>
<filter id="filter1_dd_147_2810" x="8.89551" y="15.2104" width="14.4158" height="15.4468" filterUnits="userSpaceOnUse" color-interpolation-filters="sRGB">
<feFlood flood-opacity="0" result="BackgroundImageFix"/>
<feColorMatrix in="SourceAlpha" type="matrix" values="0 0 0 0 0 0 0 0 0 0 0 0 0 0 0 0 0 0 127 0" result="hardAlpha"/>
<feOffset dy="4"/>
<feGaussianBlur stdDeviation="2"/>
<feComposite in2="hardAlpha" operator="out"/>
<feColorMatrix type="matrix" values="0 0 0 0 0 0 0 0 0 0 0 0 0 0 0 0 0 0 0.5 0"/>
<feBlend mode="normal" in2="BackgroundImageFix" result="effect1_dropShadow_147_2810"/>
<feColorMatrix in="SourceAlpha" type="matrix" values="0 0 0 0 0 0 0 0 0 0 0 0 0 0 0 0 0 0 127 0" result="hardAlpha"/>
<feOffset dy="4"/>
<feGaussianBlur stdDeviation="2"/>
<feComposite in2="hardAlpha" operator="out"/>
<feColorMatrix type="matrix" values="0 0 0 0 0 0 0 0 0 0 0 0 0 0 0 0 0 0 0.25 0"/>
<feBlend mode="normal" in2="effect1_dropShadow_147_2810" result="effect2_dropShadow_147_2810"/>
<feBlend mode="normal" in="SourceGraphic" in2="effect2_dropShadow_147_2810" result="shape"/>
</filter>
<filter id="filter2_dd_147_2810" x="6.50439" y="12.2607" width="19.2361" height="21.041" filterUnits="userSpaceOnUse" color-interpolation-filters="sRGB">
<feFlood flood-opacity="0" result="BackgroundImageFix"/>
<feColorMatrix in="SourceAlpha" type="matrix" values="0 0 0 0 0 0 0 0 0 0 0 0 0 0 0 0 0 0 127 0" result="hardAlpha"/>
<feOffset dy="4"/>
<feGaussianBlur stdDeviation="2"/>
<feComposite in2="hardAlpha" operator="out"/>
<feColorMatrix type="matrix" values="0 0 0 0 0 0 0 0 0 0 0 0 0 0 0 0 0 0 0.5 0"/>
<feBlend mode="normal" in2="BackgroundImageFix" result="effect1_dropShadow_147_2810"/>
<feColorMatrix in="SourceAlpha" type="matrix" values="0 0 0 0 0 0 0 0 0 0 0 0 0 0 0 0 0 0 127 0" result="hardAlpha"/>
<feOffset dy="4"/>
<feGaussianBlur stdDeviation="2"/>
<feComposite in2="hardAlpha" operator="out"/>
<feColorMatrix type="matrix" values="0 0 0 0 0 0 0 0 0 0 0 0 0 0 0 0 0 0 0.25 0"/>
<feBlend mode="normal" in2="effect1_dropShadow_147_2810" result="effect2_dropShadow_147_2810"/>
<feBlend mode="normal" in="SourceGraphic" in2="effect2_dropShadow_147_2810" result="shape"/>
</filter>
<filter id="filter3_dd_147_2810" x="7.67383" y="13.7075" width="16.885" height="18.313" filterUnits="userSpaceOnUse" color-interpolation-filters="sRGB">
<feFlood flood-opacity="0" result="BackgroundImageFix"/>
<feColorMatrix in="SourceAlpha" type="matrix" values="0 0 0 0 0 0 0 0 0 0 0 0 0 0 0 0 0 0 127 0" result="hardAlpha"/>
<feOffset dy="4"/>
<feGaussianBlur stdDeviation="2"/>
<feComposite in2="hardAlpha" operator="out"/>
<feColorMatrix type="matrix" values="0 0 0 0 0 0 0 0 0 0 0 0 0 0 0 0 0 0 0.5 0"/>
<feBlend mode="normal" in2="BackgroundImageFix" result="effect1_dropShadow_147_2810"/>
<feColorMatrix in="SourceAlpha" type="matrix" values="0 0 0 0 0 0 0 0 0 0 0 0 0 0 0 0 0 0 127 0" result="hardAlpha"/>
<feOffset dy="4"/>
<feGaussianBlur stdDeviation="2"/>
<feComposite in2="hardAlpha" operator="out"/>
<feColorMatrix type="matrix" values="0 0 0 0 0 0 0 0 0 0 0 0 0 0 0 0 0 0 0.25 0"/>
<feBlend mode="normal" in2="effect1_dropShadow_147_2810" result="effect2_dropShadow_147_2810"/>
<feBlend mode="normal" in="SourceGraphic" in2="effect2_dropShadow_147_2810" result="shape"/>
</filter>
<filter id="filter4_dd_147_2810" x="5.38696" y="10.6982" width="21.7329" height="23.9395" filterUnits="userSpaceOnUse" color-interpolation-filters="sRGB">
<feFlood flood-opacity="0" result="BackgroundImageFix"/>
<feColorMatrix in="SourceAlpha" type="matrix" values="0 0 0 0 0 0 0 0 0 0 0 0 0 0 0 0 0 0 127 0" result="hardAlpha"/>
<feOffset dy="4"/>
<feGaussianBlur stdDeviation="2"/>
<feComposite in2="hardAlpha" operator="out"/>
<feColorMatrix type="matrix" values="0 0 0 0 0 0 0 0 0 0 0 0 0 0 0 0 0 0 0.5 0"/>
<feBlend mode="normal" in2="BackgroundImageFix" result="effect1_dropShadow_147_2810"/>
<feColorMatrix in="SourceAlpha" type="matrix" values="0 0 0 0 0 0 0 0 0 0 0 0 0 0 0 0 0 0 127 0" result="hardAlpha"/>
<feOffset dy="4"/>
<feGaussianBlur stdDeviation="2"/>
<feComposite in2="hardAlpha" operator="out"/>
<feColorMatrix type="matrix" values="0 0 0 0 0 0 0 0 0 0 0 0 0 0 0 0 0 0 0.25 0"/>
<feBlend mode="normal" in2="effect1_dropShadow_147_2810" result="effect2_dropShadow_147_2810"/>
<feBlend mode="normal" in="SourceGraphic" in2="effect2_dropShadow_147_2810" result="shape"/>
</filter>
<filter id="filter5_dd_147_2810" x="4.09692" y="9.20752" width="24.2295" height="26.8374" filterUnits="userSpaceOnUse" color-interpolation-filters="sRGB">
<feFlood flood-opacity="0" result="BackgroundImageFix"/>
<feColorMatrix in="SourceAlpha" type="matrix" values="0 0 0 0 0 0 0 0 0 0 0 0 0 0 0 0 0 0 127 0" result="hardAlpha"/>
<feOffset dy="4"/>
<feGaussianBlur stdDeviation="2"/>
<feComposite in2="hardAlpha" operator="out"/>
<feColorMatrix type="matrix" values="0 0 0 0 0 0 0 0 0 0 0 0 0 0 0 0 0 0 0.5 0"/>
<feBlend mode="normal" in2="BackgroundImageFix" result="effect1_dropShadow_147_2810"/>
<feColorMatrix in="SourceAlpha" type="matrix" values="0 0 0 0 0 0 0 0 0 0 0 0 0 0 0 0 0 0 127 0" result="hardAlpha"/>
<feOffset dy="4"/>
<feGaussianBlur stdDeviation="2"/>
<feComposite in2="hardAlpha" operator="out"/>
<feColorMatrix type="matrix" values="0 0 0 0 0 0 0 0 0 0 0 0 0 0 0 0 0 0 0.25 0"/>
<feBlend mode="normal" in2="effect1_dropShadow_147_2810" result="effect2_dropShadow_147_2810"/>
<feBlend mode="normal" in="SourceGraphic" in2="effect2_dropShadow_147_2810" result="shape"/>
</filter>
<filter id="filter6_dd_147_2810" x="2.8811" y="7.58887" width="26.7263" height="29.7354" filterUnits="userSpaceOnUse" color-interpolation-filters="sRGB">
<feFlood flood-opacity="0" result="BackgroundImageFix"/>
<feColorMatrix in="SourceAlpha" type="matrix" values="0 0 0 0 0 0 0 0 0 0 0 0 0 0 0 0 0 0 127 0" result="hardAlpha"/>
<feOffset dy="4"/>
<feGaussianBlur stdDeviation="2"/>
<feComposite in2="hardAlpha" operator="out"/>
<feColorMatrix type="matrix" values="0 0 0 0 0 0 0 0 0 0 0 0 0 0 0 0 0 0 0.5 0"/>
<feBlend mode="normal" in2="BackgroundImageFix" result="effect1_dropShadow_147_2810"/>
<feColorMatrix in="SourceAlpha" type="matrix" values="0 0 0 0 0 0 0 0 0 0 0 0 0 0 0 0 0 0 127 0" result="hardAlpha"/>
<feOffset dy="4"/>
<feGaussianBlur stdDeviation="2"/>
<feComposite in2="hardAlpha" operator="out"/>
<feColorMatrix type="matrix" values="0 0 0 0 0 0 0 0 0 0 0 0 0 0 0 0 0 0 0.25 0"/>
<feBlend mode="normal" in2="effect1_dropShadow_147_2810" result="effect2_dropShadow_147_2810"/>
<feBlend mode="normal" in="SourceGraphic" in2="effect2_dropShadow_147_2810" result="shape"/>
</filter>
<filter id="filter7_dd_147_2810" x="1.76562" y="6.19775" width="29.0952" height="32.4849" filterUnits="userSpaceOnUse" color-interpolation-filters="sRGB">
<feFlood flood-opacity="0" result="BackgroundImageFix"/>
<feColorMatrix in="SourceAlpha" type="matrix" values="0 0 0 0 0 0 0 0 0 0 0 0 0 0 0 0 0 0 127 0" result="hardAlpha"/>
<feOffset dy="4"/>
<feGaussianBlur stdDeviation="2"/>
<feComposite in2="hardAlpha" operator="out"/>
<feColorMatrix type="matrix" values="0 0 0 0 0 0 0 0 0 0 0 0 0 0 0 0 0 0 0.5 0"/>
<feBlend mode="normal" in2="BackgroundImageFix" result="effect1_dropShadow_147_2810"/>
<feColorMatrix in="SourceAlpha" type="matrix" values="0 0 0 0 0 0 0 0 0 0 0 0 0 0 0 0 0 0 127 0" result="hardAlpha"/>
<feOffset dy="4"/>
<feGaussianBlur stdDeviation="2"/>
<feComposite in2="hardAlpha" operator="out"/>
<feColorMatrix type="matrix" values="0 0 0 0 0 0 0 0 0 0 0 0 0 0 0 0 0 0 0.25 0"/>
<feBlend mode="normal" in2="effect1_dropShadow_147_2810" result="effect2_dropShadow_147_2810"/>
<feBlend mode="normal" in="SourceGraphic" in2="effect2_dropShadow_147_2810" result="shape"/>
</filter>
<filter id="filter8_dd_147_2810" x="0.749268" y="4.84814" width="31.5237" height="35.3037" filterUnits="userSpaceOnUse" color-interpolation-filters="sRGB">
<feFlood flood-opacity="0" result="BackgroundImageFix"/>
<feColorMatrix in="SourceAlpha" type="matrix" values="0 0 0 0 0 0 0 0 0 0 0 0 0 0 0 0 0 0 127 0" result="hardAlpha"/>
<feOffset dy="4"/>
<feGaussianBlur stdDeviation="2"/>
<feComposite in2="hardAlpha" operator="out"/>
<feColorMatrix type="matrix" values="0 0 0 0 0 0 0 0 0 0 0 0 0 0 0 0 0 0 0.5 0"/>
<feBlend mode="normal" in2="BackgroundImageFix" result="effect1_dropShadow_147_2810"/>
<feColorMatrix in="SourceAlpha" type="matrix" values="0 0 0 0 0 0 0 0 0 0 0 0 0 0 0 0 0 0 127 0" result="hardAlpha"/>
<feOffset dy="4"/>
<feGaussianBlur stdDeviation="2"/>
<feComposite in2="hardAlpha" operator="out"/>
<feColorMatrix type="matrix" values="0 0 0 0 0 0 0 0 0 0 0 0 0 0 0 0 0 0 0.25 0"/>
<feBlend mode="normal" in2="effect1_dropShadow_147_2810" result="effect2_dropShadow_147_2810"/>
<feBlend mode="normal" in="SourceGraphic" in2="effect2_dropShadow_147_2810" result="shape"/>
</filter>
</defs>
</svg>
