<svg width="15" height="22" viewBox="0 0 15 22" fill="none" xmlns="http://www.w3.org/2000/svg">
<path d="M3.75753 17.6551H9.38503C9.98429 17.6551 10.2839 17.6551 10.5342 17.6978C11.7898 17.9118 12.7733 18.8954 12.9874 20.1509C13.03 20.4012 13.03 20.7008 13.03 21.3001V7.86011C13.03 5.03168 13.03 3.61747 12.1513 2.73879C11.2727 1.86011 9.85846 1.86011 7.03003 1.86011H3.75753C2.81472 1.86011 2.34332 1.86011 2.05042 2.153C1.75753 2.44589 1.75753 2.9173 1.75753 3.86011V15.6551C1.75753 16.5979 1.75753 17.0693 2.05042 17.3622C2.34332 17.6551 2.81472 17.6551 3.75753 17.6551Z" stroke="#FFCB74" stroke-width="2"/>
</svg>
