<svg width="26" height="20" viewBox="0 0 26 20" fill="none" xmlns="http://www.w3.org/2000/svg">
<path d="M24.3024 15.3469V1.73225C24.3024 1.41588 23.9846 1.19828 23.6897 1.31273L18.1716 3.45388C18.0859 3.48713 17.9921 3.49334 17.9027 3.47167L8.15716 1.10823C8.06783 1.08656 7.97401 1.09278 7.88832 1.12603L2.04466 3.39351C1.87153 3.46068 1.75745 3.62732 1.75745 3.81303V17.4277C1.75745 17.744 2.07529 17.9616 2.37023 17.8472L7.88832 15.706C7.97401 15.6728 8.06783 15.6666 8.15716 15.6882L17.9027 18.0517C17.9921 18.0733 18.0859 18.0671 18.1716 18.0339L24.0152 15.7664C24.1884 15.6992 24.3024 15.5326 24.3024 15.3469Z" stroke="#FFCB74" stroke-width="2" stroke-linejoin="round"/>
</svg>
