<svg width="14" height="22" viewBox="0 0 14 22" fill="none" xmlns="http://www.w3.org/2000/svg">
<path d="M10.3025 17.6551H4.67503C4.07577 17.6551 3.77614 17.6551 3.52585 17.6978C2.27029 17.9118 1.28675 18.8954 1.0727 20.1509C1.03003 20.4012 1.03003 20.7008 1.03003 21.3001V7.86011C1.03003 5.03168 1.03003 3.61747 1.90871 2.73879C2.78739 1.86011 4.2016 1.86011 7.03003 1.86011H10.3025C11.2453 1.86011 11.7167 1.86011 12.0096 2.153C12.3025 2.44589 12.3025 2.9173 12.3025 3.86011V15.6551C12.3025 16.5979 12.3025 17.0693 12.0096 17.3622C11.7167 17.6551 11.2453 17.6551 10.3025 17.6551Z" stroke="#FFCB74" stroke-width="2"/>
</svg>
